
<svg aria-hidden="true" style="position: absolute; width: 0; height: 0; overflow: hidden;" version="1.1" xmlns="http://www.w3.org/2000/svg" xmlns:xlink="http://www.w3.org/1999/xlink">
<defs>
<symbol id="alarm" viewBox="0 0 24 24">
<path d="M12.5 8.095H11v6l4.75 2.85.75-1.23-4-2.37v-5.25Zm4.837-6.19 4.607 3.845-1.28 1.535-4.61-3.843 1.283-1.537Zm-10.674 0 1.282 1.536-4.608 3.844-1.28-1.536 4.606-3.844ZM12 4.095a9 9 0 1 0 0 18.001 9 9 0 0 0 0-18.001Zm0 16c-3.86 0-7-3.14-7-7s3.14-7 7-7 7 3.14 7 7-3.14 7-7 7Z"/>
</symbol>
<symbol id="clock" viewBox="0 0 24 24">
<path d="M12 2C6.5 2 2 6.5 2 12s4.5 10 10 10 10-4.5 10-10S17.5 2 12 2Zm0 18c-4.41 0-8-3.59-8-8s3.59-8 8-8 8 3.59 8 8-3.59 8-8 8Zm.5-13H11v6l5.2 3.2.8-1.3-4.5-2.7V7Z"/>
</symbol>
<symbol id="bank" viewBox="0 0 24 24">
<path d="M4.5 11.871v4c0 .83.67 1.5 1.5 1.5s1.5-.67 1.5-1.5v-4c0-.83-.67-1.5-1.5-1.5s-1.5.67-1.5 1.5Zm6 0v4c0 .83.67 1.5 1.5 1.5s1.5-.67 1.5-1.5v-4c0-.83-.67-1.5-1.5-1.5s-1.5.67-1.5 1.5ZM4 22.371h16c.83 0 1.5-.67 1.5-1.5s-.67-1.5-1.5-1.5H4c-.83 0-1.5.67-1.5 1.5s.67 1.5 1.5 1.5Zm12.5-10.5v4c0 .83.67 1.5 1.5 1.5s1.5-.67 1.5-1.5v-4c0-.83-.67-1.5-1.5-1.5s-1.5.67-1.5 1.5Zm-5.43-10.01-7.9 4.16c-.41.21-.67.64-.67 1.1 0 .69.56 1.25 1.25 1.25h16.51c.68 0 1.24-.56 1.24-1.25 0-.46-.26-.89-.67-1.1l-7.9-4.16c-.58-.31-1.28-.31-1.86 0Z"/></symbol>
<symbol id="user_circle" viewBox="0 0 24 24">
<path d="M12 2C6.48 2 2 6.48 2 12s4.48 10 10 10 10-4.48 10-10S17.52 2 12 2Zm0 3c1.66 0 3 1.34 3 3s-1.34 3-3 3-3-1.34-3-3 1.34-3 3-3Zm0 14.2a7.2 7.2 0 0 1-6-3.22c.03-1.99 4-3.08 6-3.08 1.99 0 5.97 1.09 6 3.08a7.2 7.2 0 0 1-6 3.22Z"/>
</symbol>
<symbol id="plus_circle" viewBox="0 0 24 24">
<path d="M12 7c-.55 0-1 .45-1 1v3H8c-.55 0-1 .45-1 1s.45 1 1 1h3v3c0 .55.45 1 1 1s1-.45 1-1v-3h3c.55 0 1-.45 1-1s-.45-1-1-1h-3V8c0-.55-.45-1-1-1Zm0-5C6.48 2 2 6.48 2 12s4.48 10 10 10 10-4.48 10-10S17.52 2 12 2Zm0 18c-4.41 0-8-3.59-8-8s3.59-8 8-8 8 3.59 8 8-3.59 8-8 8Z"/>
</symbol>
<symbol id="plus" viewBox="0 0 24 24">
<path d="M18 13h-5v5c0 .55-.45 1-1 1s-1-.45-1-1v-5H6c-.55 0-1-.45-1-1s.45-1 1-1h5V6c0-.55.45-1 1-1s1 .45 1 1v5h5c.55 0 1 .45 1 1s-.45 1-1 1Z"/>
</symbol>
<symbol id="atsign" viewBox="0 0 24 24">
<path d="M12.718 2.028a9.991 9.991 0 0 0-10.69 10.69c.36 5.29 4.98 9.28 10.28 9.28h3.69c.55 0 1-.45 1-1s-.45-1-1-1h-3.67c-3.73 0-7.15-2.42-8.08-6.03-1.49-5.8 3.91-11.21 9.71-9.71 3.62.92 6.04 4.34 6.04 8.07v1.1c0 .79-.71 1.57-1.5 1.57s-1.5-.78-1.5-1.57v-1.25c0-2.51-1.78-4.77-4.26-5.12a5.008 5.008 0 0 0-5.66 5.87 4.996 4.996 0 0 0 3.72 3.94c1.84.43 3.59-.16 4.74-1.33.89 1.22 2.67 1.86 4.3 1.21 1.34-.53 2.16-1.9 2.16-3.34v-1.09c0-5.31-3.99-9.93-9.28-10.29Zm-.72 12.97c-1.66 0-3-1.34-3-3s1.34-3 3-3 3 1.34 3 3-1.34 3-3 3Z"/>
</symbol>
<symbol id="chart_area" viewBox="0 0 24 24">
<path d="m17 7.5-5-4-5 7-4-3v13h18v-13h-4Zm2 9.95L12 12l-4 5.5-3-2.4v-3.6l2.44 1.83 4.96-6.95 3.9 3.12H19v7.95Z"/>
</symbol>
<symbol id="arrow_left" viewBox="0 0 24 24">
<path d="M18.791 11.005H7.621l4.88-4.88c.39-.39.39-1.03 0-1.42a.996.996 0 0 0-1.41 0l-6.59 6.59a.996.996 0 0 0 0 1.41l6.59 6.59a.996.996 0 1 0 1.41-1.41l-4.88-4.88h11.17c.55 0 1-.45 1-1s-.45-1-1-1Z"/>
</symbol>
<symbol id="arrow_circle_down" viewBox="0 0 24 24">
<path d="M12 4c4.41 0 8 3.59 8 8s-3.59 8-8 8-8-3.59-8-8 3.59-8 8-8Zm0-2C6.48 2 2 6.48 2 12s4.48 10 10 10 10-4.48 10-10S17.52 2 12 2Zm1 10V8h-2v4H8l4 4 4-4h-3Z"/>
</symbol>
<symbol id="arrow_circle_left" viewBox="0 0 24 24">
<path d="M2 12c0 5.52 4.48 10 10 10s10-4.48 10-10S17.52 2 12 2 2 6.48 2 12Zm10-1h4v2h-4v3l-4-4 4-4v3Z"/>
</symbol>
<symbol id="arrow_circle_right" viewBox="0 0 24 24">
<path d="M22 12c0-5.52-4.48-10-10-10S2 6.48 2 12s4.48 10 10 10 10-4.48 10-10Zm-10 1H8v-2h4V8l4 4-4 4v-3Z"/>
</symbol>
<symbol id="arrow_circle_up" viewBox="0 0 24 24">
<path d="M12 20c-4.41 0-8-3.59-8-8s3.59-8 8-8 8 3.59 8 8-3.59 8-8 8Zm0 2c5.52 0 10-4.48 10-10S17.52 2 12 2 2 6.48 2 12s4.48 10 10 10Zm-1-10v4h2v-4h3l-4-4-4 4h3Z"/>
</symbol>
<symbol id="arrow_down" viewBox="0 0 24 24">
<path d="M11.005 5.209v11.17l-4.88-4.88c-.39-.39-1.03-.39-1.42 0a.996.996 0 0 0 0 1.41l6.59 6.59c.39.39 1.02.39 1.41 0l6.59-6.59a.996.996 0 1 0-1.41-1.41l-4.88 4.88V5.209c0-.55-.45-1-1-1s-1 .45-1 1Z"/>
</symbol>
<symbol id="caret_circle_down" viewBox="0 0 24 24">
<path d="M12 4c4.41 0 8 3.59 8 8s-3.59 8-8 8-8-3.59-8-8 3.59-8 8-8Zm0-2C6.48 2 2 6.48 2 12s4.48 10 10 10 10-4.48 10-10S17.52 2 12 2Zm0 13-4-4h8l-4 4Z"/>
</symbol>
<symbol id="caret_down" viewBox="0 0 24 24">
<path d="m7 9.5 5 5 5-5H7Z"/>
</symbol>
<symbol id="caret_up" viewBox="0 0 24 24">
<path d="m7 14.5 5-5 5 5H7Z"/>
</symbol>
<symbol id="arrow_right" viewBox="0 0 24 24">
<path d="M5.209 13h11.17l-4.88 4.88c-.39.39-.39 1.03 0 1.42.39.39 1.02.39 1.41 0l6.59-6.59a.996.996 0 0 0 0-1.41l-6.58-6.6a.996.996 0 1 0-1.41 1.41l4.87 4.89H5.209c-.55 0-1 .45-1 1s.45 1 1 1Z"/>
</symbol>
<symbol id="caret_left" viewBox="0 0 24 24">
<path d="m14.5 7-5 5 5 5V7Z"/>
</symbol>
<symbol id="caret_right" viewBox="0 0 24 24">
<path d="m9.5 17 5-5-5-5v10Z"/>
</symbol>
<symbol id="arrow_up" viewBox="0 0 24 24">
<path d="M13 18.791V7.621l4.88 4.88c.39.39 1.03.39 1.42 0a.996.996 0 0 0 0-1.41l-6.59-6.59a.996.996 0 0 0-1.41 0l-6.6 6.58a.996.996 0 1 0 1.41 1.41L11 7.621v11.17c0 .55.45 1 1 1s1-.45 1-1Z"/>
</symbol>
<symbol id="currency_dollars" viewBox="0 0 24 24">
<path d="M12.39 10.9c-2.27-.59-3-1.2-3-2.15 0-1.09 1.01-1.85 2.7-1.85 1.78 0 2.44.85 2.5 2.1h2.21c-.07-1.72-1.12-3.3-3.21-3.81V3h-3v2.16c-1.94.42-3.5 1.68-3.5 3.61 0 2.31 1.91 3.46 4.7 4.13 2.5.6 3 1.48 3 2.41 0 .69-.49 1.79-2.7 1.79-2.06 0-2.87-.92-2.98-2.1h-2.2c.12 2.19 1.76 3.42 3.68 3.83V21h3v-2.15c1.95-.37 3.5-1.5 3.5-3.55 0-2.84-2.43-3.81-4.7-4.4Z"/>
</symbol>
<symbol id="chart_bar" viewBox="0 0 24 24">
<path d="M5 9.2h3V19H5V9.2ZM10.6 5h2.8v14h-2.8V5Zm5.6 8H19v6h-2.8v-6Z"/>
</symbol>
<symbol id="block" viewBox="0 0 24 24">
<path d="M12 2C6.48 2 2 6.48 2 12s4.48 10 10 10 10-4.48 10-10S17.52 2 12 2ZM4 12c0-4.42 3.58-8 8-8 1.85 0 3.55.63 4.9 1.69L5.69 16.9A7.902 7.902 0 0 1 4 12Zm8 8c-1.85 0-3.55-.63-4.9-1.69L18.31 7.1A7.902 7.902 0 0 1 20 12c0 4.42-3.58 8-8 8Z"/>
</symbol>
<symbol id="bookmark" viewBox="0 0 24 24">
<path d="M17 3H7c-1.1 0-2 .9-2 2v16l7-3 7 3V5c0-1.1-.9-2-2-2Zm0 15-5-2.18L7 18V5h10v13Z"/>
</symbol>
<symbol id="math" viewBox="0 0 24 24">
<path d="M19 3H5c-1.1 0-2 .9-2 2v14c0 1.1.9 2 2 2h14c1.1 0 2-.9 2-2V5c0-1.1-.9-2-2-2Zm0 16H5V5h14v14Z"/>
<path d="M11.25 7.72h-5v1.5h5v-1.5ZM18 15.75h-5v1.5h5v-1.5Zm0-2.5h-5v1.5h5v-1.5ZM8 18h1.5v-2h2v-1.5h-2v-2H8v2H6V16h2v2Zm6.09-7.05 1.41-1.41 1.41 1.41 1.06-1.06-1.41-1.42 1.41-1.41L16.91 6 15.5 7.41 14.09 6l-1.06 1.06 1.41 1.41-1.41 1.42 1.06 1.06Z"/>
</symbol>
<symbol id="calendar" viewBox="0 0 24 24">
<path d="M17 2c-.55 0-1 .45-1 1v1H8V3c0-.55-.45-1-1-1s-1 .45-1 1v1H5c-1.11 0-1.99.9-1.99 2L3 20a2 2 0 0 0 2 2h14c1.1 0 2-.9 2-2V6c0-1.1-.9-2-2-2h-1V3c0-.55-.45-1-1-1Zm2 18H5V10h14v10Zm-8-7c0-.55.45-1 1-1s1 .45 1 1-.45 1-1 1-1-.45-1-1Zm-4 0c0-.55.45-1 1-1s1 .45 1 1-.45 1-1 1-1-.45-1-1Zm8 0c0-.55.45-1 1-1s1 .45 1 1-.45 1-1 1-1-.45-1-1Zm-4 4c0-.55.45-1 1-1s1 .45 1 1-.45 1-1 1-1-.45-1-1Zm-4 0c0-.55.45-1 1-1s1 .45 1 1-.45 1-1 1-1-.45-1-1Zm8 0c0-.55.45-1 1-1s1 .45 1 1-.45 1-1 1-1-.45-1-1Z"/>
</symbol>
<symbol id="camera" viewBox="0 0 24 24">
<path d="M20 5h-3.17L15 3H9L7.17 5H4c-1.1 0-2 .9-2 2v12c0 1.1.9 2 2 2h16c1.1 0 2-.9 2-2V7c0-1.1-.9-2-2-2Zm0 14H4V7h4.05l1.83-2h4.24l1.83 2H20v12ZM12 8c-2.76 0-5 2.24-5 5s2.24 5 5 5 5-2.24 5-5-2.24-5-5-5Zm0 8c-1.65 0-3-1.35-3-3s1.35-3 3-3 3 1.35 3 3-1.35 3-3 3Z"/>
</symbol>
<symbol id="megaphone" viewBox="0 0 24 24">
<path d="M18 12.005c0 .55.45 1 1 1h2c.55 0 1-.45 1-1s-.45-1-1-1h-2c-.55 0-1 .45-1 1Zm-1.41 4.82a.966.966 0 0 0 .2 1.37c.53.39 1.09.81 1.62 1.21.44.33 1.06.24 1.38-.2 0-.01.01-.01.01-.02a.978.978 0 0 0-.2-1.38c-.53-.4-1.09-.82-1.61-1.21a.993.993 0 0 0-1.39.21c0 .01-.01.02-.01.02Zm3.22-12.01c0-.01-.01-.01-.01-.02a.98.98 0 0 0-1.38-.2c-.53.4-1.1.82-1.62 1.22-.44.33-.52.95-.19 1.38 0 .01.01.01.01.02.33.44.94.53 1.38.2.53-.39 1.09-.82 1.62-1.22.43-.32.51-.94.19-1.38ZM8 9.005H4c-1.1 0-2 .9-2 2v2c0 1.1.9 2 2 2h1v3c0 .55.45 1 1 1s1-.45 1-1v-3h1l5 3v-12l-5 3Zm7.5 3c0-1.33-.58-2.53-1.5-3.35v6.69c.92-.81 1.5-2.01 1.5-3.34Z"/>
</symbol>
<symbol id="close_circle" viewBox="0 0 24 24">
<path d="M12 2C6.47 2 2 6.47 2 12s4.47 10 10 10 10-4.47 10-10S17.53 2 12 2Zm4.3 14.3a.996.996 0 0 1-1.41 0L12 13.41 9.11 16.3a.996.996 0 1 1-1.41-1.41L10.59 12 7.7 9.11A.996.996 0 1 1 9.11 7.7L12 10.59l2.89-2.89a.996.996 0 1 1 1.41 1.41L13.41 12l2.89 2.89c.38.38.38 1.02 0 1.41Z"/>
</symbol>
<symbol id="message" viewBox="0 0 24 24">
<path d="M20 2H4c-1.1 0-2 .9-2 2v18l4-4h14c1.1 0 2-.9 2-2V4c0-1.1-.9-2-2-2Zm0 14H6l-2 2V4h16v12Z"/>
</symbol>
<symbol id="check_box_blank" viewBox="0 0 24 24">
<path d="M19 5v14H5V5h14Zm0-2H5c-1.1 0-2 .9-2 2v14c0 1.1.9 2 2 2h14c1.1 0 2-.9 2-2V5c0-1.1-.9-2-2-2Z"/>
</symbol>
<symbol id="check_box" viewBox="0 0 24 24">
<path d="M19 3H5c-1.1 0-2 .9-2 2v14c0 1.1.9 2 2 2h14c1.1 0 2-.9 2-2V5c0-1.1-.9-2-2-2Zm0 16H5V5h14v14ZM17.99 9l-1.41-1.42-6.59 6.59-2.58-2.57-1.42 1.41 4 3.99 8-8Z"/>
</symbol>
<symbol id="check_circle" viewBox="0 0 24 24">
<path d="M12 2C6.48 2 2 6.48 2 12s4.48 10 10 10 10-4.48 10-10S17.52 2 12 2Zm0 18c-4.41 0-8-3.59-8-8s3.59-8 8-8 8 3.59 8 8-3.59 8-8 8Zm3.88-11.71L10 14.17l-1.88-1.88a.996.996 0 1 0-1.41 1.41l2.59 2.59c.39.39 1.02.39 1.41 0L17.3 9.7a.996.996 0 0 0 0-1.41c-.39-.39-1.03-.39-1.42 0Z"/>
</symbol>
<symbol id="check" viewBox="0 0 24 24">
<path d="M10.432 17.294a1.21 1.21 0 0 1-1.713 0L4.355 12.93a1.21 1.21 0 0 1 0-1.713 1.21 1.21 0 0 1 1.714 0l3.5 3.5 8.362-8.362a1.21 1.21 0 0 1 1.713 0 1.21 1.21 0 0 1 0 1.714l-9.212 9.225Z"/>
</symbol>
<symbol id="chevron_left" viewBox="0 0 24 24">
<path d="M15 6.705a.996.996 0 0 0-1.41 0L9 11.295a.996.996 0 0 0 0 1.41l4.59 4.59a.996.996 0 1 0 1.41-1.41l-3.88-3.89L15 8.115c.39-.39.38-1.03 0-1.41Z"/>
</symbol>
<symbol id="chevron_right" viewBox="0 0 24 24">
<path d="M9 6.71a.996.996 0 0 0 0 1.41L12.88 12 9 15.88a.996.996 0 1 0 1.41 1.41L15 12.7a.996.996 0 0 0 0-1.41L10.41 6.7c-.38-.38-1.02-.38-1.41.01Z"/>
</symbol>
<symbol id="collapse" viewBox="0 0 24 24">
<path d="M22 3.41 16.71 8.7 20 12h-8V4l3.29 3.29L20.59 2 22 3.41ZM3.41 22l5.29-5.29L12 20v-8H4l3.29 3.29L2 20.59 3.41 22Z"/>
</symbol>
<symbol id="close" viewBox="0 0 24 24">
<path d="M18.3 5.71a.996.996 0 0 0-1.41 0L12 10.59 7.11 5.7A.996.996 0 1 0 5.7 7.11L10.59 12 5.7 16.89a.996.996 0 1 0 1.41 1.41L12 13.41l4.89 4.89a.996.996 0 1 0 1.41-1.41L13.41 12l4.89-4.89c.38-.38.38-1.02 0-1.4Z"/>
</symbol>
<symbol id="creditcard" viewBox="0 0 24 24">
<path d="M20 4H4c-1.11 0-1.99.89-1.99 2L2 18c0 1.11.89 2 2 2h16c1.11 0 2-.89 2-2V6c0-1.11-.89-2-2-2Zm0 14H4v-6h16v6Zm0-10H4V6h16v2Z"/>
</symbol>
<symbol id="currency_bitcoin" viewBox="0 0 24 24">
<path d="M16.56 11.57c.59-.69.94-1.59.94-2.57 0-1.86-1.27-3.43-3-3.87V3h-2v2h-2V3h-2v2h-3v2h2v10h-2v2h3v2h2v-2h2v2h2v-2c2.21 0 4-1.79 4-4 0-1.45-.78-2.73-1.94-3.43ZM9.5 7h4c1.1 0 2 .9 2 2s-.9 2-2 2h-4V7Zm5 10h-5v-4h5c1.1 0 2 .9 2 2s-.9 2-2 2Z"/>
</symbol>
<symbol id="currency_exchange" viewBox="0 0 24 24">
<path d="M12.89 11.1c-1.78-.59-2.64-.96-2.64-1.9 0-1.02 1.11-1.39 1.81-1.39 1.31 0 1.79.99 1.9 1.34l1.58-.67c-.15-.45-.82-1.92-2.54-2.24V5h-2v1.26c-2.48.56-2.49 2.86-2.49 2.96 0 2.27 2.25 2.91 3.35 3.31 1.58.56 2.28 1.07 2.28 2.03 0 1.13-1.05 1.61-1.98 1.61-1.82 0-2.34-1.87-2.4-2.09l-1.66.67c.63 2.19 2.28 2.78 2.9 2.96V19h2v-1.24c.4-.09 2.9-.59 2.9-3.22 0-1.39-.61-2.61-3.01-3.44ZM3 21H1v-6h6v2H4.52c1.61 2.41 4.36 4 7.48 4a9 9 0 0 0 9-9h2c0 6.08-4.92 11-11 11-3.72 0-7.01-1.85-9-4.67V21Zm-2-9C1 5.92 5.92 1 12 1c3.72 0 7.01 1.85 9 4.67V3h2v6h-6V7h2.48C17.87 4.59 15.12 3 12 3a9 9 0 0 0-9 9H1Z"/>
</symbol>
<symbol id="currency_franc" viewBox="0 0 24 24">
<path d="M18.5 5V3h-11v13h-2v2h2v3h2v-3h4v-2h-4v-3h8v-2h-8V5h9Z"/>
</symbol>
<symbol id="currency_lira" viewBox="0 0 24 24">
<path d="M9 8.76V3h2v4.51L15 5v2.36l-4 2.51.01 2.35L15 9.72v2.36l-4 2.51V19c2.76 0 5-2.24 5-5h2c0 3.87-3.13 7-7 7H9v-5.16l-3 1.88v-2.36l3-1.88v-2.36L6 13v-2.36l3-1.88Z"/>
</symbol>
<symbol id="currency_pound" viewBox="0 0 24 24">
<path d="M14 21.25c1.93 0 3.62-1.17 4-3l-1.75-.88c-.25 1.09-.92 1.88-2.25 1.88H9.1c.83-1 1.5-2.34 1.5-4 0-.35-.03-.69-.08-1H14v-2H9.82C9 10.67 8 9.85 8 8.25a3.5 3.5 0 0 1 6.78-1.22l1.85-.78c-.8-2.05-2.79-3.5-5.13-3.5-3.04 0-5.5 2.46-5.5 5.5 0 1.78.79 2.9 1.49 4H6v2h2.47c.08.31.13.64.13 1 0 2.7-2.6 4-2.6 4v2h8Z"/>
</symbol>
<symbol id="currency_ruble" viewBox="0 0 24 24">
<path d="M13.5 3H7v9H5v2h2v2H5v2h2v3h2v-3h4v-2H9v-2h4.5c3.04 0 5.5-2.46 5.5-5.5S16.54 3 13.5 3Zm0 9H9V5h4.5C15.43 5 17 6.57 17 8.5S15.43 12 13.5 12Z"/>
</symbol>
<symbol id="currency_rupee" viewBox="0 0 24 24">
<path d="M13.66 7c-.56-1.18-1.76-2-3.16-2H6V3h12v2h-3.26c.48.58.84 1.26 1.05 2H18v2h-2.02c-.25 2.8-2.61 5-5.48 5h-.73l6.73 7h-2.77L7 14v-2h3.5c1.76 0 3.22-1.3 3.46-3H6V7h7.66Z"/>
</symbol>
<symbol id="currency_yen" viewBox="0 0 24 24">
<path d="M13.92 11H18v2h-5v2h5v2h-5v4h-2v-4H6v-2h5v-2H6v-2h4.08L5 3h2.37L12 10.29 16.63 3H19l-5.08 8Z"/>
</symbol>
<symbol id="currency_yuan" viewBox="0 0 24 24">
<path d="M13.28 12H18v2h-5v7h-2v-7H6v-2h4.72L5 3h2.37L12 10.29 16.63 3H19l-5.72 9Z"/>
</symbol>
<symbol id="trash" viewBox="0 0 24 24">
<path d="M16 9v10H8V9h8Zm-1.5-6h-5l-1 1H5v2h14V4h-3.5l-1-1ZM18 7H6v12c0 1.1.9 2 2 2h8c1.1 0 2-.9 2-2V7Z"/>
</symbol>
<symbol id="document" viewBox="0 0 24 24">
<path d="M8 16h8v2H8v-2Zm0-4h8v2H8v-2Zm6-10H6c-1.1 0-2 .9-2 2v16c0 1.1.89 2 1.99 2H18c1.1 0 2-.9 2-2V8l-6-6Zm4 18H6V4h7v5h5v11Z"/>
</symbol>
<symbol id="devices" viewBox="0 0 24 24">
<path d="M4 7c0-.55.45-1 1-1h16c.55 0 1-.45 1-1s-.45-1-1-1H4c-1.1 0-2 .9-2 2v11h-.5c-.83 0-1.5.67-1.5 1.5S.67 20 1.5 20H14v-3H4V7Zm19 1h-6c-.55 0-1 .45-1 1v10c0 .55.45 1 1 1h6c.55 0 1-.45 1-1V9c0-.55-.45-1-1-1Zm-1 9h-4v-7h4v7Z"/>
</symbol>
<symbol id="dialpad" viewBox="0 0 24 24">
<path d="M12 19c-1.1 0-2 .9-2 2s.9 2 2 2 2-.9 2-2-.9-2-2-2ZM6 1c-1.1 0-2 .9-2 2s.9 2 2 2 2-.9 2-2-.9-2-2-2Zm0 6c-1.1 0-2 .9-2 2s.9 2 2 2 2-.9 2-2-.9-2-2-2Zm0 6c-1.1 0-2 .9-2 2s.9 2 2 2 2-.9 2-2-.9-2-2-2Zm12-8c1.1 0 2-.9 2-2s-.9-2-2-2-2 .9-2 2 .9 2 2 2Zm-6 8c-1.1 0-2 .9-2 2s.9 2 2 2 2-.9 2-2-.9-2-2-2Zm6 0c-1.1 0-2 .9-2 2s.9 2 2 2 2-.9 2-2-.9-2-2-2Zm0-6c-1.1 0-2 .9-2 2s.9 2 2 2 2-.9 2-2-.9-2-2-2Zm-6 0c-1.1 0-2 .9-2 2s.9 2 2 2 2-.9 2-2-.9-2-2-2Zm0-6c-1.1 0-2 .9-2 2s.9 2 2 2 2-.9 2-2-.9-2-2-2Z"/>
</symbol>
<symbol id="drag" viewBox="0 0 24 24">
<path d="M11 18c0 1.1-.9 2-2 2s-2-.9-2-2 .9-2 2-2 2 .9 2 2Zm-2-8c-1.1 0-2 .9-2 2s.9 2 2 2 2-.9 2-2-.9-2-2-2Zm0-6c-1.1 0-2 .9-2 2s.9 2 2 2 2-.9 2-2-.9-2-2-2Zm6 4c1.1 0 2-.9 2-2s-.9-2-2-2-2 .9-2 2 .9 2 2 2Zm0 2c-1.1 0-2 .9-2 2s.9 2 2 2 2-.9 2-2-.9-2-2-2Zm0 6c-1.1 0-2 .9-2 2s.9 2 2 2 2-.9 2-2-.9-2-2-2Z"/>
</symbol>
<symbol id="sign" viewBox="0 0 24 24">
<path d="m19.103 10.39 1.06-1.06c.78-.78.78-2.05 0-2.83l-1.41-1.41c-.78-.78-2.05-.78-2.83 0l-1.06 1.06 4.24 4.24Zm-4.24 1.42L7.663 19h-1.41v-1.41l7.19-7.19 1.42 1.41Zm-1.42-4.25-9.19 9.2V21h4.24l9.19-9.19-4.24-4.25Zm5.81 9.94c0 2.19-2.54 3.5-5 3.5-.55 0-1-.45-1-1s.45-1 1-1c1.54 0 3-.73 3-1.5 0-.47-.48-.87-1.23-1.2l1.48-1.48c1.07.63 1.75 1.47 1.75 2.68Zm-14.42-4.15c-.97-.56-1.58-1.29-1.58-2.35 0-1.8 1.89-2.63 3.56-3.36 1.03-.46 2.44-1.08 2.44-1.64 0-.41-.78-1-2-1-1.26 0-1.8.61-1.83.64-.35.41-.98.46-1.4.12a.992.992 0 0 1-.15-1.38C3.983 4.24 5.013 3 7.253 3s4 1.32 4 3c0 1.87-1.93 2.72-3.64 3.47-.94.41-2.36 1.03-2.36 1.53 0 .31.43.6 1.07.86l-1.49 1.49Z"/>
</symbol>
<symbol id="edit" viewBox="0 0 24 24">
<path d="M2.999 17.25V21h3.75l11.06-11.06-3.75-3.75-11.06 11.06ZM5.919 19h-.92v-.92l9.06-9.06.92.92L5.918 19Zm14.79-13.37-2.34-2.34c-.2-.2-.45-.29-.71-.29-.26 0-.51.1-.7.29l-1.83 1.83 3.75 3.75 1.83-1.83a.996.996 0 0 0 0-1.41Z"/>
</symbol>
<symbol id="email" viewBox="0 0 24 24">
<path d="M22 6c0-1.1-.9-2-2-2H4c-1.1 0-2 .9-2 2v12c0 1.1.9 2 2 2h16c1.1 0 2-.9 2-2V6Zm-2 0-8 5-8-5h16Zm0 12H4V8l8 5 8-5v10Z"/>
</symbol>
<symbol id="error" viewBox="0 0 24 24">
<path d="M11 15h2v2h-2v-2Zm0-8h2v6h-2V7Zm.99-5C6.47 2 2 6.48 2 12s4.47 10 9.99 10C17.52 22 22 17.52 22 12S17.52 2 11.99 2ZM12 20c-4.42 0-8-3.58-8-8s3.58-8 8-8 8 3.58 8 8-3.58 8-8 8Z"/>
</symbol>
<symbol id="currency_euro" viewBox="0 0 24 24">
<path d="M15.5 18.5A6.48 6.48 0 0 1 9.74 15h5.76l1-2H9.08c-.05-.33-.08-.66-.08-1 0-.34.03-.67.08-1h6.42l1-2H9.74a6.491 6.491 0 0 1 5.76-3.5c1.61 0 3.09.59 4.23 1.57L21.5 5.3a8.955 8.955 0 0 0-6-2.3c-3.92 0-7.24 2.51-8.48 6H3.5l-1 2h4.06a8.262 8.262 0 0 0 0 2H3.5l-1 2h4.52c1.24 3.49 4.56 6 8.48 6 2.31 0 4.41-.87 6-2.3l-1.78-1.77c-1.13.98-2.6 1.57-4.22 1.57Z"/>
</symbol>
<symbol id="chevron_circle_down" viewBox="0 0 24 24">
<path d="M15.08 9.59 12 12.67 8.92 9.59 7.5 11l4.5 4.5 4.5-4.5-1.42-1.41ZM12 2C6.48 2 2 6.48 2 12s4.48 10 10 10 10-4.48 10-10S17.52 2 12 2Zm0 18c-4.42 0-8-3.58-8-8s3.58-8 8-8 8 3.58 8 8-3.58 8-8 8Z"/>
</symbol>
<symbol id="compass" viewBox="0 0 24 24">
<path d="M12 2C6.48 2 2 6.48 2 12s4.48 10 10 10 10-4.48 10-10S17.52 2 12 2Zm0 18c-4.41 0-8-3.59-8-8s3.59-8 8-8 8 3.59 8 8-3.59 8-8 8Zm-5.5-2.5 7.51-3.49L17.5 6.5 9.99 9.99 6.5 17.5Zm5.5-6.6c.61 0 1.1.49 1.1 1.1 0 .61-.49 1.1-1.1 1.1-.61 0-1.1-.49-1.1-1.1 0-.61.49-1.1 1.1-1.1Z"/>
</symbol>
<symbol id="heart" viewBox="0 0 24 24">
<path d="M16.5 2.825c-1.74 0-3.41.81-4.5 2.09-1.09-1.28-2.76-2.09-4.5-2.09-3.08 0-5.5 2.42-5.5 5.5 0 3.78 3.4 6.86 8.55 11.54l1.45 1.31 1.45-1.32c5.15-4.67 8.55-7.75 8.55-11.53 0-3.08-2.42-5.5-5.5-5.5Zm-4.4 15.55-.1.1-.1-.1C7.14 14.065 4 11.215 4 8.325c0-2 1.5-3.5 3.5-3.5 1.54 0 3.04.99 3.57 2.36h1.87c.52-1.37 2.02-2.36 3.56-2.36 2 0 3.5 1.5 3.5 3.5 0 2.89-3.14 5.74-7.9 10.05Z"/>
</symbol>
<symbol id="new" viewBox="0 0 24 24">
<path d="M7.25 12.5 4.75 9H3.5v6h1.25v-3.5L7.3 15h1.2V9H7.25v3.5ZM9.5 15h4v-1.25H11v-1.11h2.5v-1.26H11v-1.12h2.5V9h-4v6Zm9.75-6v4.5h-1.12V9.99h-1.25v3.52h-1.13V9H14.5v5c0 .55.45 1 1 1h4c.55 0 1-.45 1-1V9h-1.25Z"/>
</symbol>
<symbol id="pin" viewBox="0 0 24 24">
<path d="M11 15h1.5V9H11v6Zm7.75-6v3.5L16.25 9H15v6h1.25v-3.5L18.8 15H20V9h-1.25ZM7.5 9H4v6h1.5v-2h2c.85 0 1.5-.65 1.5-1.5v-1C9 9.65 8.35 9 7.5 9Zm0 2.5h-2v-1h2v1Z"/>
</symbol>
<symbol id="file_download" viewBox="0 0 24 24">
<path d="M18 15v3H6v-3H4v3c0 1.1.9 2 2 2h12c1.1 0 2-.9 2-2v-3h-2Zm-1-4-1.41-1.41L13 12.17V4h-2v8.17L8.41 9.59 7 11l5 5 5-5Z"/>
</symbol>
<symbol id="file_upload" viewBox="0 0 24 24">
<path d="M18 15v3H6v-3H4v3c0 1.1.9 2 2 2h12c1.1 0 2-.9 2-2v-3h-2ZM7 9l1.41 1.41L11 7.83V16h2V7.83l2.59 2.58L17 9l-5-5-5 5Z"/>
</symbol>
<symbol id="filter" viewBox="0 0 24 24">
<path d="M7.005 6h10l-5.01 6.3L7.005 6Zm-2.75-.39c2.02 2.59 5.75 7.39 5.75 7.39v6c0 .55.45 1 1 1h2c.55 0 1-.45 1-1v-6s3.72-4.8 5.74-7.39a.998.998 0 0 0-.79-1.61H5.045c-.83 0-1.3.95-.79 1.61Z"/>
</symbol>
<symbol id="filter_alt" viewBox="0 0 24 24">
<path d="M11 18h2c.55 0 1-.45 1-1s-.45-1-1-1h-2c-.55 0-1 .45-1 1s.45 1 1 1ZM3 7c0 .55.45 1 1 1h16c.55 0 1-.45 1-1s-.45-1-1-1H4c-.55 0-1 .45-1 1Zm4 6h10c.55 0 1-.45 1-1s-.45-1-1-1H7c-.55 0-1 .45-1 1s.45 1 1 1Z"/>
</symbol>
<symbol id="fingerprint" viewBox="0 0 24 24">
<path d="M17.815 4.47c-.08 0-.16-.02-.23-.06-1.92-.99-3.58-1.41-5.57-1.41-1.98 0-3.86.47-5.57 1.41-.24.13-.54.04-.68-.2a.506.506 0 0 1 .2-.68C7.825 2.52 9.865 2 12.015 2c2.13 0 3.99.47 6.03 1.52.25.13.34.43.21.67a.49.49 0 0 1-.44.28ZM3.505 9.72a.499.499 0 0 1-.41-.79c.99-1.4 2.25-2.5 3.75-3.27 3.14-1.62 7.16-1.63 10.31-.01 1.5.77 2.76 1.86 3.75 3.25a.5.5 0 0 1-.12.7c-.23.16-.54.11-.7-.12a9.388 9.388 0 0 0-3.39-2.94c-2.87-1.47-6.54-1.47-9.4.01-1.36.7-2.5 1.7-3.4 2.96-.08.14-.23.21-.39.21Zm6.25 12.07a.47.47 0 0 1-.35-.15c-.87-.87-1.34-1.43-2.01-2.64-.69-1.23-1.05-2.73-1.05-4.34 0-2.97 2.54-5.39 5.66-5.39s5.66 2.42 5.66 5.39c0 .28-.22.5-.5.5s-.5-.22-.5-.5c0-2.42-2.09-4.39-4.66-4.39-2.57 0-4.66 1.97-4.66 4.39 0 1.44.32 2.77.93 3.85.64 1.15 1.08 1.64 1.85 2.42.19.2.19.51 0 .71-.11.1-.24.15-.37.15Zm7.17-1.85c-1.19 0-2.24-.3-3.1-.89-1.49-1.01-2.38-2.65-2.38-4.39 0-.28.22-.5.5-.5s.5.22.5.5c0 1.41.72 2.74 1.94 3.56.71.48 1.54.71 2.54.71.24 0 .64-.03 1.04-.1.27-.05.53.13.58.41.05.27-.13.53-.41.58-.57.11-1.07.12-1.21.12ZM14.915 22c-.04 0-.09-.01-.13-.02-1.59-.44-2.63-1.03-3.72-2.1a7.297 7.297 0 0 1-2.17-5.22c0-1.62 1.38-2.94 3.08-2.94 1.7 0 3.08 1.32 3.08 2.94 0 1.07.93 1.94 2.08 1.94s2.08-.87 2.08-1.94c0-3.77-3.25-6.83-7.25-6.83-2.84 0-5.44 1.58-6.61 4.03-.39.81-.59 1.76-.59 2.8 0 .78.07 2.01.67 3.61.1.26-.03.55-.29.64-.26.1-.55-.04-.64-.29a11.14 11.14 0 0 1-.73-3.96c0-1.2.23-2.29.68-3.24 1.33-2.79 4.28-4.6 7.51-4.6 4.55 0 8.25 3.51 8.25 7.83 0 1.62-1.38 2.94-3.08 2.94-1.7 0-3.08-1.32-3.08-2.94 0-1.07-.93-1.94-2.08-1.94s-2.08.87-2.08 1.94c0 1.71.66 3.31 1.87 4.51.95.94 1.86 1.46 3.27 1.85.27.07.42.35.35.61-.05.23-.26.38-.47.38Z"/>
</symbol>
<symbol id="flag" viewBox="0 0 24 24">
<path d="m11.86 5.5.4 2h5.24v6h-3.36l-.4-2H6.5v-6h5.36Zm1.64-2h-9v17h2v-7h5.6l.4 2h7v-10h-5.6l-.4-2Z"/>
</symbol>
<symbol id="help" viewBox="0 0 24 24">
<path d="M12 2C6.48 2 2 6.48 2 12s4.48 10 10 10 10-4.48 10-10S17.52 2 12 2Zm0 18c-4.41 0-8-3.59-8-8s3.59-8 8-8 8 3.59 8 8-3.59 8-8 8Zm-1-4h2v2h-2v-2Zm1.61-9.96c-2.06-.3-3.88.97-4.43 2.79-.18.58.26 1.17.87 1.17h.2c.41 0 .74-.29.88-.67.32-.89 1.27-1.5 2.3-1.28.95.2 1.65 1.13 1.57 2.1-.1 1.34-1.62 1.63-2.45 2.88 0 .01-.01.01-.01.02-.01.02-.02.03-.03.05-.09.15-.18.32-.25.5-.01.03-.03.05-.04.08-.01.02-.01.04-.02.07-.12.34-.2.75-.2 1.25h2c0-.42.11-.77.28-1.07.02-.03.03-.06.05-.09.08-.14.18-.27.28-.39.01-.01.02-.03.03-.04.1-.12.21-.23.33-.34.96-.91 2.26-1.65 1.99-3.56-.24-1.74-1.61-3.21-3.35-3.47Z"/>
</symbol>
<symbol id="home" viewBox="0 0 24 24">
<path d="m12 6.19 5 4.5v7.81h-2v-6H9v6H7v-7.81l5-4.5Zm0-2.69-10 9h3v8h6v-6h2v6h6v-8h3l-10-9Z"/>
</symbol>
<symbol id="chart_pie_alt" viewBox="0 0 24 24">
<path d="M22 12c0 5.52-4.48 10-10 10S2 17.52 2 12c0-2.76 1.12-5.26 2.93-7.07L12 12V2c5.52 0 10 4.48 10 10Z"/>
</symbol>
<symbol id="check_box_partial" viewBox="0 0 24 24">
<path d="M19 3H5c-1.1 0-2 .9-2 2v14c0 1.1.9 2 2 2h14c1.1 0 2-.9 2-2V5c0-1.1-.9-2-2-2Zm0 16H5V5h14v14ZM7 11h10v2H7v-2Z"/>
</symbol>
<symbol id="info" viewBox="0 0 24 24">
<path d="M11 7h2v2h-2V7Zm0 4h2v6h-2v-6Zm1-9C6.48 2 2 6.48 2 12s4.48 10 10 10 10-4.48 10-10S17.52 2 12 2Zm0 18c-4.41 0-8-3.59-8-8s3.59-8 8-8 8 3.59 8 8-3.59 8-8 8Z"/>
</symbol>
<symbol id="document_blank" viewBox="0 0 24 24">
<path d="M14 2H6c-1.1 0-1.99.9-1.99 2L4 20c0 1.1.89 2 1.99 2H18c1.1 0 2-.9 2-2V8l-6-6ZM6 20V4h7v5h5v11H6Z"/>
</symbol>
<symbol id="link" viewBox="0 0 24 24">
<path d="M17 7h-3c-.55 0-1 .45-1 1s.45 1 1 1h3c1.65 0 3 1.35 3 3s-1.35 3-3 3h-3c-.55 0-1 .45-1 1s.45 1 1 1h3c2.76 0 5-2.24 5-5s-2.24-5-5-5Zm-9 5c0 .55.45 1 1 1h6c.55 0 1-.45 1-1s-.45-1-1-1H9c-.55 0-1 .45-1 1Zm2 3H7c-1.65 0-3-1.35-3-3s1.35-3 3-3h3c.55 0 1-.45 1-1s-.45-1-1-1H7c-2.76 0-5 2.24-5 5s2.24 5 5 5h3c.55 0 1-.45 1-1s-.45-1-1-1Z"/>
</symbol>
<symbol id="chevron_down" viewBox="0 0 24 24">
<path d="m15.875 9-3.88 3.88L8.115 9a.996.996 0 1 0-1.41 1.41l4.59 4.59c.39.39 1.02.39 1.41 0l4.59-4.59a.996.996 0 0 0 0-1.41c-.39-.38-1.03-.39-1.42 0Z"/>
</symbol>
<symbol id="chevron_up" viewBox="0 0 24 24">
<path d="m11.295 9-4.59 4.59A.996.996 0 1 0 8.115 15l3.89-3.88 3.88 3.88a.996.996 0 1 0 1.41-1.41L12.705 9a.996.996 0 0 0-1.41 0Z"/>
</symbol>
<symbol id="internet" viewBox="0 0 24 24">
<path d="M11.99 2C6.47 2 2 6.48 2 12s4.47 10 9.99 10C17.52 22 22 17.52 22 12S17.52 2 11.99 2Zm6.93 6h-2.95a15.65 15.65 0 0 0-1.38-3.56A8.03 8.03 0 0 1 18.92 8ZM12 4.04c.83 1.2 1.48 2.53 1.91 3.96h-3.82c.43-1.43 1.08-2.76 1.91-3.96ZM4.26 14C4.1 13.36 4 12.69 4 12s.1-1.36.26-2h3.38c-.08.66-.14 1.32-.14 2 0 .68.06 1.34.14 2H4.26Zm.82 2h2.95c.32 1.25.78 2.45 1.38 3.56A7.987 7.987 0 0 1 5.08 16Zm2.95-8H5.08a7.987 7.987 0 0 1 4.33-3.56A15.65 15.65 0 0 0 8.03 8ZM12 19.96c-.83-1.2-1.48-2.53-1.91-3.96h3.82c-.43 1.43-1.08 2.76-1.91 3.96ZM14.34 14H9.66c-.09-.66-.16-1.32-.16-2 0-.68.07-1.35.16-2h4.68c.09.65.16 1.32.16 2 0 .68-.07 1.34-.16 2Zm.25 5.56c.6-1.11 1.06-2.31 1.38-3.56h2.95a8.03 8.03 0 0 1-4.33 3.56ZM16.36 14c.08-.66.14-1.32.14-2 0-.68-.06-1.34-.14-2h3.38c.16.64.26 1.31.26 2s-.1 1.36-.26 2h-3.38Z"/>
</symbol>
<symbol id="launch" viewBox="0 0 24 24">
<path d="M18 19H6c-.55 0-1-.45-1-1V6c0-.55.45-1 1-1h5c.55 0 1-.45 1-1s-.45-1-1-1H5a2 2 0 0 0-2 2v14c0 1.1.9 2 2 2h14c1.1 0 2-.9 2-2v-6c0-.55-.45-1-1-1s-1 .45-1 1v5c0 .55-.45 1-1 1ZM14 4c0 .55.45 1 1 1h2.59l-9.13 9.13a.996.996 0 1 0 1.41 1.41L19 6.41V9c0 .55.45 1 1 1s1-.45 1-1V3h-6c-.55 0-1 .45-1 1Z"/>
</symbol>
<symbol id="chart_bar_alt" viewBox="0 0 24 24">
<path d="M6.5 21H3c-.55 0-1-.45-1-1V10c0-.55.45-1 1-1h3.5c.55 0 1 .45 1 1v10c0 .55-.45 1-1 1Zm7.25-18h-3.5c-.55 0-1 .45-1 1v16c0 .55.45 1 1 1h3.5c.55 0 1-.45 1-1V4c0-.55-.45-1-1-1ZM21 11h-3.5c-.55 0-1 .45-1 1v8c0 .55.45 1 1 1H21c.55 0 1-.45 1-1v-8c0-.55-.45-1-1-1Z"/>
</symbol>
<symbol id="lightbulb" viewBox="0 0 24 24">
<path d="M9 21c0 .55.45 1 1 1h4c.55 0 1-.45 1-1v-1H9v1Zm3-19C8.14 2 5 5.14 5 9c0 2.38 1.19 4.47 3 5.74V17c0 .55.45 1 1 1h6c.55 0 1-.45 1-1v-2.26c1.81-1.27 3-3.36 3-5.74 0-3.86-3.14-7-7-7Zm2.85 11.1-.85.6V16h-4v-2.3l-.85-.6A4.997 4.997 0 0 1 7 9c0-2.76 2.24-5 5-5s5 2.24 5 5c0 1.63-.8 3.16-2.15 4.1Z"/>
</symbol>
<symbol id="chart_line_alt" viewBox="0 0 24 24">
<path d="m22 7.93-1.41-1.41-4.03 4.53L9.5 4.5 2 12.01l1.5 1.5 6.14-6.15 5.59 5.18-1.73 1.95-4-4L2 18l1.5 1.5 6-6.01 4 4 3.19-3.59 3.9 3.61L22 16.1l-3.98-3.7L22 7.93Z"/>
</symbol>
<symbol id="link_off" viewBox="0 0 24 24">
<path d="M14.1 8.295h2.87c1.46 0 2.8.98 3.08 2.42.31 1.64-.74 3.11-2.22 3.48l1.53 1.53c1.77-.91 2.95-2.82 2.7-5.01-.28-2.56-2.59-4.42-5.17-4.42H14.1c-.55 0-1 .45-1 1s.45 1 1 1ZM3.61 2.805a.996.996 0 1 0-1.41 1.41l2.64 2.64c-1.77.91-2.95 2.82-2.7 5.01.28 2.57 2.59 4.43 5.17 4.43h2.79c.55 0 1-.45 1-1s-.45-1-1-1H7.23c-1.46 0-2.8-.98-3.08-2.42-.31-1.64.75-3.11 2.22-3.48l2.12 2.12c-.23.19-.39.46-.39.78 0 .55.45 1 1 1h1.17l8.9 8.9a.996.996 0 1 0 1.41-1.41L3.61 2.805Zm10.49 7.49 1.71 1.71a1.003 1.003 0 0 0-.71-1.71h-1Z"/>
</symbol>
<symbol id="money" viewBox="0 0 24 24">
<path d="M11 17h2v-1h1c.55 0 1-.45 1-1v-3c0-.55-.45-1-1-1h-3v-1h4V8h-2V7h-2v1h-1c-.55 0-1 .45-1 1v3c0 .55.45 1 1 1h3v1H9v2h2v1Zm9-13H4c-1.11 0-1.99.89-1.99 2L2 18c0 1.11.89 2 2 2h16c1.11 0 2-.89 2-2V6c0-1.11-.89-2-2-2Zm0 14H4V6h16v12Z"/>
</symbol>
<symbol id="shield_star" viewBox="0 0 24 24">
<path d="m14.5 12.59.9 3.88-3.4-2.05-3.4 2.05.9-3.87-3-2.59 3.96-.34L12 6.02l1.54 3.64 3.96.34-3 2.59ZM12 3.19l7 3.11V11c0 4.52-2.98 8.69-7 9.93-4.02-1.24-7-5.41-7-9.93V6.3l7-3.11ZM12 1 3 5v6c0 5.55 3.84 10.74 9 12 5.16-1.26 9-6.45 9-12V5l-9-4Z"/>
</symbol>
<symbol id="print" viewBox="0 0 24 24">
<path d="M19 8H5c-1.66 0-3 1.34-3 3v4c0 1.1.9 2 2 2h2v2c0 1.1.9 2 2 2h8c1.1 0 2-.9 2-2v-2h2c1.1 0 2-.9 2-2v-4c0-1.66-1.34-3-3-3Zm-4 11H9c-.55 0-1-.45-1-1v-4h8v4c0 .55-.45 1-1 1Zm4-7c-.55 0-1-.45-1-1s.45-1 1-1 1 .45 1 1-.45 1-1 1Zm-2-9H7c-.55 0-1 .45-1 1v2c0 .55.45 1 1 1h10c.55 0 1-.45 1-1V4c0-.55-.45-1-1-1Z"/>
</symbol>
<symbol id="location" viewBox="0 0 24 24">
<path d="M12 12c-1.1 0-2-.9-2-2s.9-2 2-2 2 .9 2 2-.9 2-2 2Zm6-1.8C18 6.57 15.35 4 12 4s-6 2.57-6 6.2c0 2.34 1.95 5.44 6 9.14 4.05-3.7 6-6.8 6-9.14ZM12 2c4.2 0 8 3.22 8 8.2 0 3.32-2.67 7.25-8 11.8-5.33-4.55-8-8.48-8-11.8C4 5.22 7.8 2 12 2Z"/>
</symbol>
<symbol id="unlock" viewBox="0 0 24 24">
<path d="M12 13.5c-1.1 0-2 .9-2 2s.9 2 2 2 2-.9 2-2-.9-2-2-2Zm6-5h-1v-2c0-2.76-2.24-5-5-5-2.28 0-4.27 1.54-4.84 3.75-.14.54.18 1.08.72 1.22a1 1 0 0 0 1.22-.72A2.996 2.996 0 0 1 12 3.5c1.65 0 3 1.35 3 3v2H6c-1.1 0-2 .9-2 2v10c0 1.1.9 2 2 2h12c1.1 0 2-.9 2-2v-10c0-1.1-.9-2-2-2Zm0 11c0 .55-.45 1-1 1H7c-.55 0-1-.45-1-1v-8c0-.55.45-1 1-1h10c.55 0 1 .45 1 1v8Z"/>
</symbol>
<symbol id="lock" viewBox="0 0 24 24">
<path d="M18 8.5h-1v-2c0-2.76-2.24-5-5-5s-5 2.24-5 5v2H6c-1.1 0-2 .9-2 2v10c0 1.1.9 2 2 2h12c1.1 0 2-.9 2-2v-10c0-1.1-.9-2-2-2Zm-9-2c0-1.66 1.34-3 3-3s3 1.34 3 3v2H9v-2Zm9 14H6v-10h12v10Zm-6-3c1.1 0 2-.9 2-2s-.9-2-2-2-2 .9-2 2 .9 2 2 2Z"/>
</symbol>
<symbol id="login" viewBox="0 0 24 24">
<path d="M11 7 9.6 8.4l2.6 2.6H2v2h10.2l-2.6 2.6L11 17l5-5-5-5Zm9 12h-8v2h8c1.1 0 2-.9 2-2V5c0-1.1-.9-2-2-2h-8v2h8v14Z"/>
</symbol>
<symbol id="logout" viewBox="0 0 24 24">
<path d="m17 8-1.41 1.41L17.17 11H9v2h8.17l-1.58 1.58L17 16l4-4-4-4ZM5 5h7V3H5c-1.1 0-2 .9-2 2v14c0 1.1.9 2 2 2h7v-2H5V5Z"/>
</symbol>
<symbol id="user_settings" viewBox="0 0 24 24">
<path d="M10.82 12.525c-.22-.01-.44-.02-.67-.02-2.42 0-4.68.67-6.61 1.82-.88.52-1.39 1.5-1.39 2.53v1.65c0 .55.45 1 1 1h8.26a6.963 6.963 0 0 1-.59-6.98Zm-.67-1.02a4 4 0 1 0 0-8 4 4 0 0 0 0 8Zm10.75 4c0-.22-.03-.42-.06-.63l.84-.73c.18-.16.22-.42.1-.63l-.59-1.02a.488.488 0 0 0-.59-.22l-1.06.36c-.32-.27-.68-.48-1.08-.63l-.22-1.09a.503.503 0 0 0-.49-.4h-1.18c-.24 0-.44.17-.49.4l-.22 1.09c-.4.15-.76.36-1.08.63l-1.06-.36a.496.496 0 0 0-.59.22l-.59 1.02c-.12.21-.08.47.1.63l.84.73c-.03.21-.06.41-.06.63 0 .22.03.42.06.63l-.84.73c-.18.16-.22.42-.1.63l.59 1.02c.12.21.37.3.59.22l1.06-.36c.32.27.68.48 1.08.63l.22 1.09c.05.23.25.4.49.4h1.18c.24 0 .44-.17.49-.4l.22-1.09c.4-.15.76-.36 1.08-.63l1.06.36c.23.08.47-.02.59-.22l.59-1.02c.12-.21.08-.47-.1-.63l-.84-.73c.03-.21.06-.41.06-.63Zm-3.75 2c-1.1 0-2-.9-2-2s.9-2 2-2 2 .9 2 2-.9 2-2 2Z"/>
</symbol>
<symbol id="menu" viewBox="0 0 24 24">
<path d="M4 18h16c.55 0 1-.45 1-1s-.45-1-1-1H4c-.55 0-1 .45-1 1s.45 1 1 1Zm0-5h16c.55 0 1-.45 1-1s-.45-1-1-1H4c-.55 0-1 .45-1 1s.45 1 1 1ZM3 7c0 .55.45 1 1 1h16c.55 0 1-.45 1-1s-.45-1-1-1H4c-.55 0-1 .45-1 1Z"/>
</symbol>
<symbol id="mood_bad" viewBox="0 0 24 24">
<path d="M11.99 2C6.47 2 2 6.48 2 12s4.47 10 9.99 10C17.52 22 22 17.52 22 12S17.52 2 11.99 2ZM12 20c-4.42 0-8-3.58-8-8s3.58-8 8-8 8 3.58 8 8-3.58 8-8 8Zm3.5-9c.83 0 1.5-.67 1.5-1.5S16.33 8 15.5 8 14 8.67 14 9.5s.67 1.5 1.5 1.5Zm-7 0c.83 0 1.5-.67 1.5-1.5S9.33 8 8.5 8 7 8.67 7 9.5 7.67 11 8.5 11Zm3.5 2.5c-2.03 0-3.8 1.11-4.75 2.75-.19.33.06.75.44.75h8.62c.38 0 .63-.42.44-.75A5.489 5.489 0 0 0 12 13.5Z"/>
</symbol>
<symbol id="mood_good" viewBox="0 0 24 24">
<path d="M11.99 2C6.47 2 2 6.48 2 12s4.47 10 9.99 10C17.52 22 22 17.52 22 12S17.52 2 11.99 2ZM12 20c-4.42 0-8-3.58-8-8s3.58-8 8-8 8 3.58 8 8-3.58 8-8 8Zm3.5-9c.83 0 1.5-.67 1.5-1.5S16.33 8 15.5 8 14 8.67 14 9.5s.67 1.5 1.5 1.5Zm-7 0c.83 0 1.5-.67 1.5-1.5S9.33 8 8.5 8 7 8.67 7 9.5 7.67 11 8.5 11Zm3.5 6.5c2.03 0 3.8-1.11 4.75-2.75a.503.503 0 0 0-.44-.75H7.69c-.38 0-.63.42-.44.75A5.489 5.489 0 0 0 12 17.5Z"/>
</symbol>
<symbol id="more_horiz" viewBox="0 0 24 24">
<path d="M6 10c-1.1 0-2 .9-2 2s.9 2 2 2 2-.9 2-2-.9-2-2-2Zm12 0c-1.1 0-2 .9-2 2s.9 2 2 2 2-.9 2-2-.9-2-2-2Zm-6 0c-1.1 0-2 .9-2 2s.9 2 2 2 2-.9 2-2-.9-2-2-2Z"/>
</symbol>
<symbol id="notes" viewBox="0 0 24 24">
<path d="M20 11H4c-.55 0-1 .45-1 1s.45 1 1 1h16c.55 0 1-.45 1-1s-.45-1-1-1ZM4 18h10c.55 0 1-.45 1-1s-.45-1-1-1H4c-.55 0-1 .45-1 1s.45 1 1 1ZM20 6H4c-.55 0-1 .45-1 1v.01c0 .55.45 1 1 1h16c.55 0 1-.45 1-1V7c0-.55-.45-1-1-1Z"/>
</symbol>
<symbol id="notification" viewBox="0 0 24 24">
<path d="M12 21.75c1.1 0 2-.9 2-2h-4c0 1.1.9 2 2 2Zm6-6v-5c0-3.07-1.63-5.64-4.5-6.32v-.68c0-.83-.67-1.5-1.5-1.5s-1.5.67-1.5 1.5v.68C7.64 5.11 6 7.67 6 10.75v5l-2 2v1h16v-1l-2-2Zm-2 1H8v-6c0-2.48 1.51-4.5 4-4.5s4 2.02 4 4.5v6Z"/>
</symbol>
<symbol id="expand" viewBox="0 0 24 24">
<path d="M21 11V3h-8l3.29 3.29-10 10L3 13v8h8l-3.29-3.29 10-10L21 11Z"/>
</symbol>
<symbol id="money_circle" viewBox="0 0 24 24">
<path d="M12 2C6.48 2 2 6.48 2 12s4.48 10 10 10 10-4.48 10-10S17.52 2 12 2Zm0 18c-4.41 0-8-3.59-8-8s3.59-8 8-8 8 3.59 8 8-3.59 8-8 8Zm.89-8.9c-1.78-.59-2.64-.96-2.64-1.9 0-1.02 1.11-1.39 1.81-1.39 1.31 0 1.79.99 1.9 1.34l1.58-.67c-.15-.44-.82-1.91-2.66-2.23V5h-1.75v1.26c-2.6.56-2.62 2.85-2.62 2.96 0 2.27 2.25 2.91 3.35 3.31 1.58.56 2.28 1.07 2.28 2.03 0 1.13-1.05 1.61-1.98 1.61-1.82 0-2.34-1.87-2.4-2.09l-1.66.67c.63 2.19 2.28 2.78 3.02 2.96V19h1.75v-1.24c.52-.09 3.02-.59 3.02-3.22.01-1.39-.6-2.61-3-3.44Z"/>
</symbol>
<symbol id="cash" viewBox="0 0 24 24">
<path d="M19 14V6c0-1.1-.9-2-2-2H3c-1.1 0-2 .9-2 2v8c0 1.1.9 2 2 2h14c1.1 0 2-.9 2-2Zm-2 0H3V6h14v8Zm-7-7c-1.66 0-3 1.34-3 3s1.34 3 3 3 3-1.34 3-3-1.34-3-3-3Zm13 0v11c0 1.1-.9 2-2 2H4v-2h17V7h2Z"/>
</symbol>
<symbol id="more_circle" viewBox="0 0 24 24">
<path d="M12 2C6.48 2 2 6.48 2 12s4.48 10 10 10 10-4.48 10-10S17.52 2 12 2Zm0 18c-4.42 0-8-3.58-8-8s3.58-8 8-8 8 3.58 8 8-3.58 8-8 8Z"/>
<path d="M7 13.5a1.5 1.5 0 1 0 0-3 1.5 1.5 0 0 0 0 3Zm5 0a1.5 1.5 0 1 0 0-3 1.5 1.5 0 0 0 0 3Zm5 0a1.5 1.5 0 1 0 0-3 1.5 1.5 0 0 0 0 3Z"/>
</symbol>
<symbol id="people" viewBox="0 0 24 24">
<path d="M16 11c1.66 0 2.99-1.34 2.99-3S17.66 5 16 5c-1.66 0-3 1.34-3 3s1.34 3 3 3Zm-8 0c1.66 0 2.99-1.34 2.99-3S9.66 5 8 5C6.34 5 5 6.34 5 8s1.34 3 3 3Zm0 2c-2.33 0-7 1.17-7 3.5V18c0 .55.45 1 1 1h12c.55 0 1-.45 1-1v-1.5c0-2.33-4.67-3.5-7-3.5Zm8 0c-.29 0-.62.02-.97.05.02.01.03.03.04.04 1.14.83 1.93 1.94 1.93 3.41V18c0 .35-.07.69-.18 1H22c.55 0 1-.45 1-1v-1.5c0-2.33-4.67-3.5-7-3.5Z"/>
</symbol>
<symbol id="percent" viewBox="0 0 24 24">
<path d="M7.5 4C5.57 4 4 5.57 4 7.5S5.57 11 7.5 11 11 9.43 11 7.5 9.43 4 7.5 4Zm0 5C6.67 9 6 8.33 6 7.5S6.67 6 7.5 6 9 6.67 9 7.5 8.33 9 7.5 9Zm9 4c-1.93 0-3.5 1.57-3.5 3.5s1.57 3.5 3.5 3.5 3.5-1.57 3.5-3.5-1.57-3.5-3.5-3.5Zm0 5c-.83 0-1.5-.67-1.5-1.5s.67-1.5 1.5-1.5 1.5.67 1.5 1.5-.67 1.5-1.5 1.5ZM5.41 20 4 18.59 18.59 4 20 5.41 5.41 20Z"/>
</symbol>
<symbol id="user" viewBox="0 0 24 24">
<path d="M12 5.9a2.1 2.1 0 1 1 0 4.2 2.1 2.1 0 0 1 0-4.2Zm0 9c2.97 0 6.1 1.46 6.1 2.1v1.1H5.9V17c0-.64 3.13-2.1 6.1-2.1ZM12 4C9.79 4 8 5.79 8 8s1.79 4 4 4 4-1.79 4-4-1.79-4-4-4Zm0 9c-2.67 0-8 1.34-8 4v2c0 .55.45 1 1 1h14c.55 0 1-.45 1-1v-2c0-2.66-5.33-4-8-4Z"/>
</symbol>
<symbol id="phone_handset" viewBox="0 0 24 24">
<path d="M12.872 5.058c3.18.4 5.67 2.89 6.07 6.07.06.51.49.88.99.88.04 0 .08 0 .12-.01.55-.07.94-.57.87-1.12a8.981 8.981 0 0 0-7.81-7.81c-.55-.06-1.05.33-1.11.88-.07.55.32 1.05.87 1.11Zm.38 2.11a1 1 0 0 0-1.22.72c-.14.54.18 1.08.72 1.22a3 3 0 0 1 2.15 2.15 1.003 1.003 0 0 0 1.22.72c.53-.14.85-.69.72-1.22a5.018 5.018 0 0 0-3.59-3.59Zm5.97 8.1-2.54-.29a1.99 1.99 0 0 0-1.64.57l-1.84 1.84a15.045 15.045 0 0 1-6.59-6.59l1.85-1.85c.43-.43.64-1.03.57-1.64l-.29-2.52a2.001 2.001 0 0 0-1.99-1.77h-1.73c-1.13 0-2.07.94-2 2.07.53 8.54 7.36 15.36 15.89 15.89 1.13.07 2.07-.87 2.07-2v-1.73c.01-1.01-.75-1.86-1.76-1.98Z"/>
</symbol>
<symbol id="phonelink_mobile" viewBox="0 0 24 24">
<path d="m20.113 7.7-1 1c1.8 1.8 1.8 4.6 0 6.5l1 1c2.5-2.3 2.5-6.1 0-8.5Zm-2.1 2.1-1 1c.5.7.5 1.6 0 2.3l1 1c1.2-1.2 1.2-3 0-4.3Zm-4-8.8h-10c-1.1 0-2 .9-2 2v18c0 1.1.9 2 2 2h10c1.1 0 2-.9 2-2V3c0-1.1-.9-2-2-2Zm0 19h-10V4h10v16Z"/>
</symbol>
<symbol id="chart_pie" viewBox="0 0 24 24">
<path d="M12 2C6.48 2 2 6.48 2 12s4.48 10 10 10 10-4.48 10-10S17.52 2 12 2Zm7.93 9H13V4.07c3.61.45 6.48 3.32 6.93 6.93ZM4 12c0-4.07 3.06-7.44 7-7.93v15.86c-3.94-.49-7-3.86-7-7.93Zm9 7.93V13h6.93A8.002 8.002 0 0 1 13 19.93Z"/>
</symbol>
<symbol id="play_circle" viewBox="0 0 24 24">
<path d="m10.8 15.9 4.67-3.5c.27-.2.27-.6 0-.8L10.8 8.1a.5.5 0 0 0-.8.4v7c0 .41.47.65.8.4ZM12 2C6.48 2 2 6.48 2 12s4.48 10 10 10 10-4.48 10-10S17.52 2 12 2Zm0 18c-4.41 0-8-3.59-8-8s3.59-8 8-8 8 3.59 8 8-3.59 8-8 8Z"/>
</symbol>
<symbol id="power" viewBox="0 0 24 24">
<path d="M13 3h-2v10h2V3Zm4.83 2.17-1.42 1.42A6.92 6.92 0 0 1 19 12c0 3.87-3.13 7-7 7A6.995 6.995 0 0 1 7.58 6.58L6.17 5.17A8.932 8.932 0 0 0 3 12a9 9 0 0 0 18 0c0-2.74-1.23-5.18-3.17-6.83Z"/>
</symbol>
<symbol id="shield_info" viewBox="0 0 24 24">
<path d="m12 3.19 7 3.11V11c0 4.52-2.98 8.69-7 9.93-4.02-1.24-7-5.41-7-9.93V6.3l7-3.11ZM12 1 3 5v6c0 5.55 3.84 10.74 9 12 5.16-1.26 9-6.45 9-12V5l-9-4Zm-1 6h2v2h-2V7Zm0 4h2v6h-2v-6Z"/>
</symbol>
<symbol id="globe" viewBox="0 0 24 24">
<path d="M12 2C6.48 2 2 6.48 2 12s4.48 10 10 10 10-4.48 10-10S17.52 2 12 2ZM4 12c0-.61.08-1.21.21-1.78L8.99 15v1c0 1.1.9 2 2 2v1.93C7.06 19.43 4 16.07 4 12Zm13.89 5.4c-.26-.81-1-1.4-1.9-1.4h-1v-3c0-.55-.45-1-1-1h-6v-2h2c.55 0 1-.45 1-1V7h2c1.1 0 2-.9 2-2v-.41C17.92 5.77 20 8.65 20 12c0 2.08-.81 3.98-2.11 5.4Z"/>
</symbol>
<symbol id="question_answer" viewBox="0 0 24 24">
<path d="M20 6h-1v8c0 0.55-0.45 1-1 1h-12v1c0 1.1 0.9 2 2 2h10l4 4v-14c0-1.1-0.9-2-2-2zM17 11v-7c0-1.1-0.9-2-2-2h-11c-1.1 0-2 0.9-2 2v13l4-4h9c1.1 0 2-0.9 2-2z"></path>
</symbol>
<symbol id="radio_on" viewBox="0 0 24 24">
<path d="M12 2C6.48 2 2 6.48 2 12s4.48 10 10 10 10-4.48 10-10S17.52 2 12 2Zm0 18c-4.42 0-8-3.58-8-8s3.58-8 8-8 8 3.58 8 8-3.58 8-8 8Z"/><path d="M12 17a5 5 0 1 0 0-10 5 5 0 0 0 0 10Z"/>
</symbol>
<symbol id="radio_blank" viewBox="0 0 24 24">
<path d="M12 2C6.48 2 2 6.48 2 12s4.48 10 10 10 10-4.48 10-10S17.52 2 12 2Zm0 18c-4.42 0-8-3.58-8-8s3.58-8 8-8 8 3.58 8 8-3.58 8-8 8Z"/>
</symbol>
<symbol id="refresh" viewBox="0 0 24 24">
<path d="M17.645 6.35A7.958 7.958 0 0 0 11.995 4c-4.42 0-7.99 3.58-7.99 8s3.57 8 7.99 8c3.73 0 6.84-2.55 7.73-6h-2.08a5.99 5.99 0 0 1-5.65 4c-3.31 0-6-2.69-6-6s2.69-6 6-6c1.66 0 3.14.69 4.22 1.78L12.995 11h7V4l-2.35 2.35Z"/>
</symbol>
<symbol id="minus_circle" viewBox="0 0 24 24">
<path d="M7 11v2h10v-2H7Zm5-9C6.48 2 2 6.48 2 12s4.48 10 10 10 10-4.48 10-10S17.52 2 12 2Zm0 18c-4.41 0-8-3.59-8-8s3.59-8 8-8 8 3.59 8 8-3.59 8-8 8Z"/>
</symbol>
<symbol id="restore" viewBox="0 0 24 24">
<path d="M13.5 3a9 9 0 0 0-9 9h-3l4 3.99 4-3.99h-3c0-3.87 3.13-7 7-7s7 3.13 7 7-3.13 7-7 7c-1.93 0-3.68-.79-4.94-2.06l-1.42 1.42A8.954 8.954 0 0 0 13.5 21a9 9 0 0 0 0-18Zm-1 5v5l4.25 2.52.77-1.28L14 12.15V8h-1.5Z"/>
</symbol>
<symbol id="piggybank" viewBox="0 0 24 24">
<path d="M15 10.5c0-.55.45-1 1-1s1 .45 1 1-.45 1-1 1-1-.45-1-1Zm-7-1h5v-2H8v2ZM22 8v6.97l-2.82.94-1.68 5.59H12v-2h-2v2H4.5S2 13.04 2 10c0-3.04 2.46-5.5 5.5-5.5h5c.91-1.21 2.36-2 4-2a1.498 1.498 0 0 1 1.38 2.08c-.14.34-.26.73-.32 1.15L19.83 8H22Zm-2 2h-1l-3.5-3.5c0-.65.09-1.29.26-1.91-.97.25-1.76.97-2.09 1.91H7.5C5.57 6.5 4 8.07 4 10c0 1.88 1.22 6.65 2.01 9.5H8v-2h6v2h2.01l1.55-5.15 2.44-.82V10Z"/>
</symbol>
<symbol id="gradcap" viewBox="0 0 24 24">
<path d="M4.454 13.176v2.81c0 .73.4 1.41 1.04 1.76l5 2.73c.6.33 1.32.33 1.92 0l5-2.73c.64-.35 1.04-1.03 1.04-1.76v-2.81l-6.04 3.3c-.6.33-1.32.33-1.92 0l-6.04-3.3Zm6.04-9.66-8.43 4.6c-.69.38-.69 1.38 0 1.76l8.43 4.6c.6.33 1.32.33 1.92 0l8.04-4.39v5.91c0 .55.45 1 1 1s1-.45 1-1v-6.41c0-.37-.2-.7-.52-.88l-9.52-5.19a2.04 2.04 0 0 0-1.92 0Z"/>
</symbol>
<symbol id="search" viewBox="0 0 24 24">
<path d="M15.755 14.255h-.79l-.28-.27a6.471 6.471 0 0 0 1.57-4.23 6.5 6.5 0 1 0-6.5 6.5c1.61 0 3.09-.59 4.23-1.57l.27.28v.79l5 4.99 1.49-1.49-4.99-5Zm-6 0c-2.49 0-4.5-2.01-4.5-4.5s2.01-4.5 4.5-4.5 4.5 2.01 4.5 4.5-2.01 4.5-4.5 4.5Z"/>
</symbol>
<symbol id="mood_sad" viewBox="0 0 24 24">
<path d="M15.5 11a1.5 1.5 0 1 0 0-3 1.5 1.5 0 0 0 0 3Zm-7 0a1.5 1.5 0 1 0 0-3 1.5 1.5 0 0 0 0 3Z"/>
<path d="M11.99 2C6.47 2 2 6.48 2 12s4.47 10 9.99 10C17.52 22 22 17.52 22 12S17.52 2 11.99 2ZM12 20c-4.42 0-8-3.58-8-8s3.58-8 8-8 8 3.58 8 8-3.58 8-8 8Zm0-6c-1.9 0-3.63.97-4.65 2.58a.747.747 0 1 0 1.27.79c.74-1.18 2-1.88 3.38-1.88s2.64.7 3.38 1.88c.14.23.39.35.64.35.14 0 .27-.04.4-.11.35-.22.46-.68.24-1.03C15.63 14.96 13.9 14 12 14Z"/>
</symbol>
<symbol id="mood_neutral" viewBox="0 0 24 24">
<path d="M9.75 15.5h4.5c.41 0 .75-.34.75-.75s-.34-.75-.75-.75h-4.5c-.41 0-.75.34-.75.75s.34.75.75.75ZM15.5 11a1.5 1.5 0 1 0 0-3 1.5 1.5 0 0 0 0 3Zm-7 0a1.5 1.5 0 1 0 0-3 1.5 1.5 0 0 0 0 3Z"/>
<path d="M11.99 2C6.47 2 2 6.48 2 12s4.47 10 9.99 10C17.52 22 22 17.52 22 12S17.52 2 11.99 2ZM12 20c-4.42 0-8-3.58-8-8s3.58-8 8-8 8 3.58 8 8-3.58 8-8 8Z"/>
</symbol>
<symbol id="mood_happy" viewBox="0 0 24 24">
<path d="M15.5 11a1.5 1.5 0 1 0 0-3 1.5 1.5 0 0 0 0 3Zm-7 0a1.5 1.5 0 1 0 0-3 1.5 1.5 0 0 0 0 3Z"/>
<path d="M11.99 2C6.47 2 2 6.48 2 12s4.47 10 9.99 10C17.52 22 22 17.52 22 12S17.52 2 11.99 2ZM12 20c-4.42 0-8-3.58-8-8s3.58-8 8-8 8 3.58 8 8-3.58 8-8 8Zm4.41-6.11a.745.745 0 0 0-1.03.24A3.98 3.98 0 0 1 12 16c-1.38 0-2.64-.7-3.38-1.88a.747.747 0 1 0-1.27.79A5.446 5.446 0 0 0 12 17.5c1.9 0 3.63-.97 4.65-2.58.22-.35.11-.81-.24-1.03Z"/>
</symbol>
<symbol id="shield" viewBox="0 0 24 24">
<path d="M12 2 4 5v6.09c0 5.05 3.41 9.76 8 10.91 4.59-1.15 8-5.86 8-10.91V5l-8-3Zm6 9.09c0 4-2.55 7.7-6 8.83-3.45-1.13-6-4.82-6-8.83v-4.7l6-2.25 6 2.25v4.7Z"/>
</symbol>
<symbol id="chart_bar_up" viewBox="0 0 24 24">
<path d="M18 4c.83 0 1.5.67 1.5 1.5v13c0 .83-.67 1.5-1.5 1.5s-1.5-.67-1.5-1.5v-13c0-.83.67-1.5 1.5-1.5ZM6 14c.83 0 1.5.67 1.5 1.5v3c0 .83-.67 1.5-1.5 1.5s-1.5-.67-1.5-1.5v-3c0-.83.67-1.5 1.5-1.5Zm6-5c.83 0 1.5.67 1.5 1.5v8c0 .83-.67 1.5-1.5 1.5s-1.5-.67-1.5-1.5v-8c0-.83.67-1.5 1.5-1.5Z"/>
</symbol>
<symbol id="play_circle_alt" viewBox="0 0 24 24">
<path d="M9.892 8.505v7c0 .41.47.65.8.4l4.67-3.5c.27-.2.27-.6 0-.8l-4.67-3.5a.5.5 0 0 0-.8.4Zm1-5.27c0-.64-.59-1.13-1.21-.99-1.12.26-2.18.7-3.12 1.3-.53.34-.61 1.1-.16 1.55.32.32.83.4 1.21.16.77-.49 1.62-.85 2.54-1.05.44-.1.74-.51.74-.97Zm-5.9 3.28c-.46-.45-1.21-.38-1.55.16-.6.94-1.04 2-1.3 3.12-.14.62.34 1.21.98 1.21.45 0 .87-.3.96-.74.2-.91.57-1.77 1.05-2.53.26-.39.18-.9-.14-1.22Zm-1.87 6.49c-.64 0-1.13.59-.99 1.21.26 1.12.7 2.17 1.3 3.12.34.54 1.1.61 1.55.16.32-.32.4-.83.15-1.21-.49-.76-.85-1.61-1.05-2.53-.09-.45-.5-.75-.96-.75Zm3.44 7.45c.95.6 2 1.04 3.12 1.3.62.14 1.21-.35 1.21-.98 0-.45-.3-.87-.74-.96a7.97 7.97 0 0 1-2.53-1.05.972.972 0 0 0-1.21.16.972.972 0 0 0 .15 1.53Zm15.33-8.45c0 4.73-3.3 8.71-7.73 9.74-.62.15-1.22-.34-1.22-.98 0-.46.31-.86.75-.97 3.55-.82 6.2-4 6.2-7.79s-2.65-6.97-6.2-7.79c-.44-.1-.75-.51-.75-.97 0-.64.6-1.13 1.22-.98 4.43 1.03 7.73 5.01 7.73 9.74Z"/>
</symbol>
<symbol id="sort" viewBox="0 0 24 24">
<path d="M4 18h4c.55 0 1-.45 1-1s-.45-1-1-1H4c-.55 0-1 .45-1 1s.45 1 1 1ZM3 7c0 .55.45 1 1 1h16c.55 0 1-.45 1-1s-.45-1-1-1H4c-.55 0-1 .45-1 1Zm1 6h10c.55 0 1-.45 1-1s-.45-1-1-1H4c-.55 0-1 .45-1 1s.45 1 1 1Z"/>
</symbol>
<symbol id="gauge" viewBox="0 0 24 24">
<path d="M19.46 10.01a1 1 0 0 0-.07 1 7.55 7.55 0 0 1 .52 1.81 8 8 0 0 1-.69 4.73 1 1 0 0 1-.89.53H5.68a1 1 0 0 1-.89-.54A8 8 0 0 1 13 6.07a7.69 7.69 0 0 1 2.11.56 1 1 0 0 0 1-.07 1 1 0 0 0-.17-1.76A10 10 0 0 0 3.35 19.01a2 2 0 0 0 1.72 1h13.85a2 2 0 0 0 1.74-1 10 10 0 0 0 .55-8.89 1 1 0 0 0-1.75-.11Z"/>
<path d="M10.59 12.6a2.001 2.001 0 0 0 2.83 2.83l5.66-8.49-8.49 5.66Z"/>
</symbol>
<symbol id="chart_line" viewBox="0 0 24 24">
<path d="M3 8.715a1 1 0 0 1 .41-.81l3.73-2.72c.4-.29.95-.25 1.3.1l3.78 3.78 7.2-5.23c.65-.48 1.58-.01 1.58.81a1 1 0 0 1-.41.81l-7.9 5.73c-.4.29-.95.25-1.29-.1l-3.78-3.78-3.03 2.22c-.66.48-1.59.01-1.59-.81Zm18 6.97c0-.55-.45-1-1-1h-3.35c-.23 0-.45.08-.62.22l-3.9 3.12-5.53-5.35a.987.987 0 0 0-1.27-.1l-1.9 1.35c-.27.19-.43.5-.43.82 0 .81.92 1.29 1.58.81l1.22-.87 5.57 5.39c.36.35.93.38 1.32.06l4.31-3.45h3c.55 0 1-.45 1-1Z"/>
</symbol>
<symbol id="chart_bar_stacked" viewBox="0 0 24 24">
<path d="M5.5 9.5h3v10h-3v-10Zm0-5h3v4h-3v-4Zm10 11h3v4h-3v-4Zm0-3h3v2h-3v-2Zm-5 0h3v7h-3v-7Zm0-4h3v3h-3v-3Z"/>
</symbol>
<symbol id="star_half" viewBox="0 0 24 24">
<path d="m19.648 9.295-4.84-.42-1.89-4.45c-.34-.81-1.5-.81-1.84 0l-1.89 4.46-4.83.41c-.88.07-1.24 1.17-.57 1.75l3.67 3.18-1.1 4.72c-.2.86.73 1.54 1.49 1.08l4.15-2.5 4.15 2.51c.76.46 1.69-.22 1.49-1.08l-1.1-4.73 3.67-3.18c.67-.58.32-1.68-.56-1.75Zm-7.65 6.36v-9.3l1.71 4.04 4.38.38-3.32 2.88 1 4.28-3.77-2.28Z"/>
</symbol>
<symbol id="star" viewBox="0 0 24 24">
<path d="m20.043 8.76-5.09-.442-1.987-4.68c-.358-.851-1.577-.851-1.935 0L9.043 8.33l-5.079.431c-.925.074-1.304 1.23-.6 1.84l3.86 3.345-1.157 4.963c-.21.904.768 1.62 1.567 1.136l4.364-2.63 4.365 2.64c.799.484 1.777-.231 1.567-1.135l-1.157-4.975 3.86-3.344c.704-.61.336-1.766-.59-1.84ZM12 15.448l-3.955 2.387 1.052-4.5-3.491-3.029 4.606-.4 1.787-4.238 1.799 4.249 4.606.4-3.492 3.028 1.052 4.5L12 15.448Z"/>
</symbol>
<symbol id="star_circle" viewBox="0 0 24 24">
<path d="M11.99 2C6.47 2 2 6.48 2 12s4.47 10 9.99 10C17.52 22 22 17.52 22 12S17.52 2 11.99 2Zm3.23 15.39L12 15.45l-3.22 1.94a.502.502 0 0 1-.75-.54l.85-3.66-2.83-2.45a.505.505 0 0 1 .29-.88l3.74-.32 1.46-3.45c.17-.41.75-.41.92 0l1.46 3.44 3.74.32a.5.5 0 0 1 .28.88l-2.83 2.45.85 3.67c.1.43-.36.77-.74.54Z"/>
</symbol>
<symbol id="support" viewBox="0 0 24 24">
<path d="M12 2C6.48 2 2 6.48 2 12s4.48 10 10 10 10-4.48 10-10S17.52 2 12 2Zm7.46 7.12-2.78 1.15a4.982 4.982 0 0 0-2.95-2.94l1.15-2.78c2.1.8 3.77 2.47 4.58 4.57ZM12 15c-1.66 0-3-1.34-3-3s1.34-3 3-3 3 1.34 3 3-1.34 3-3 3ZM9.13 4.54l1.17 2.78a5 5 0 0 0-2.98 2.97L4.54 9.13a7.984 7.984 0 0 1 4.59-4.59ZM4.54 14.87l2.78-1.15a4.968 4.968 0 0 0 2.97 2.96l-1.17 2.78a7.996 7.996 0 0 1-4.58-4.59Zm10.34 4.59-1.15-2.78a4.978 4.978 0 0 0 2.95-2.97l2.78 1.17a8.007 8.007 0 0 1-4.58 4.58Z"/>
</symbol>
<symbol id="swap_horiz" viewBox="0 0 24 24">
<path d="M6.99 11 3 15l3.99 4v-3H14v-2H6.99v-3ZM21 9l-3.99-4v3H10v2h7.01v3L21 9Z"/>
</symbol>
<symbol id="swap_circle_horiz" viewBox="0 0 24 24">
<path d="M12 2C6.48 2 2 6.48 2 12s4.48 10 10 10 10-4.48 10-10S17.52 2 12 2Zm0 18c-4.41 0-8-3.59-8-8s3.59-8 8-8 8 3.59 8 8-3.59 8-8 8Zm3-13.5V9h-4v2h4v2.5l3.5-3.5L15 6.5Zm-6 4L5.5 14 9 17.5V15h4v-2H9v-2.5Z"/>
</symbol>
<symbol id="swap_vert" viewBox="0 0 24 24">
<path d="M16 17.01V10h-2v7.01h-3L15 21l4-3.99h-3ZM9 3 5 6.99h3V14h2V6.99h3L9 3Zm7 14.01V10h-2v7.01h-3L15 21l4-3.99h-3ZM9 3 5 6.99h3V14h2V6.99h3L9 3Z"/>
</symbol>
<symbol id="swap_circle_vert" viewBox="0 0 24 24">
<path d="M12 2C6.48 2 2 6.48 2 12s4.48 10 10 10 10-4.48 10-10S17.52 2 12 2Zm0 18c-4.41 0-8-3.59-8-8s3.59-8 8-8 8 3.59 8 8-3.59 8-8 8ZM6.5 9 10 5.5 13.5 9H11v4H9V9H6.5Zm11 6L14 18.5 10.5 15H13v-4h2v4h2.5Z"/>
</symbol>
<symbol id="sync" viewBox="0 0 24 24">
<path d="M12 4V1L8 5l4 4V6c3.31 0 6 2.69 6 6 0 1.01-.25 1.97-.7 2.8l1.46 1.46A7.93 7.93 0 0 0 20 12c0-4.42-3.58-8-8-8Zm0 14c-3.31 0-6-2.69-6-6 0-1.01.25-1.97.7-2.8L5.24 7.74A7.93 7.93 0 0 0 4 12c0 4.42 3.58 8 8 8v3l4-4-4-4v3Z"/>
</symbol>
<symbol id="calculator" viewBox="0 0 24 24">
<path d="M19 7H9c-1.1 0-2 .9-2 2v10c0 1.1.9 2 2 2h10c1.1 0 2-.9 2-2V9c0-1.1-.9-2-2-2Zm0 2v2H9V9h10Zm-6 6v-2h2v2h-2Zm2 2v2h-2v-2h2Zm-4-2H9v-2h2v2Zm6-2h2v2h-2v-2Zm-8 4h2v2H9v-2Zm8 2v-2h2v2h-2ZM6 17H5c-1.1 0-2-.9-2-2V5c0-1.1.9-2 2-2h10c1.1 0 2 .9 2 2v1h-2V5H5v10h1v2Z"/>
</symbol>
<symbol id="check_circle_alt" viewBox="0 0 24 24">
<path d="m21.284 5.89-10 10a.996.996 0 0 1-1.41 0l-2.83-2.83a.996.996 0 1 1 1.41-1.41l2.12 2.12 9.29-9.29a.996.996 0 0 1 1.41 0c.4.39.4 1.02.01 1.41Zm-5.52-3.15c-1.69-.69-3.61-.93-5.61-.57-4.07.73-7.32 4.01-8.01 8.08a10.009 10.009 0 0 0 11.19 11.66c3.96-.51 7.28-3.46 8.32-7.31.4-1.47.44-2.89.21-4.22-.13-.8-1.12-1.11-1.7-.54-.23.23-.33.57-.27.89.22 1.33.12 2.75-.52 4.26-1.16 2.71-3.68 4.7-6.61 4.97-5.1.47-9.33-3.85-8.7-8.98.43-3.54 3.28-6.42 6.81-6.91 1.73-.24 3.37.09 4.77.81a1.003 1.003 0 0 0 .93-1.78c-.27-.12-.54-.25-.81-.36Z"/>
</symbol>
<symbol id="chart_timeline" viewBox="0 0 24 24">
<path d="M23 8c0 1.1-.9 2-2 2a1.7 1.7 0 0 1-.51-.07l-3.56 3.55c.05.16.07.34.07.52 0 1.1-.9 2-2 2s-2-.9-2-2c0-.18.02-.36.07-.52l-2.55-2.55c-.16.05-.34.07-.52.07s-.36-.02-.52-.07l-4.55 4.56c.05.16.07.33.07.51 0 1.1-.9 2-2 2s-2-.9-2-2 .9-2 2-2c.18 0 .35.02.51.07l4.56-4.55C8.02 9.36 8 9.18 8 9c0-1.1.9-2 2-2s2 .9 2 2c0 .18-.02.36-.07.52l2.55 2.55c.16-.05.34-.07.52-.07s.36.02.52.07l3.55-3.56A1.7 1.7 0 0 1 19 8c0-1.1.9-2 2-2s2 .9 2 2Z"/>
</symbol>
<symbol id="toggle_off" viewBox="0 0 24 24">
<path d="M17 6H7c-3.31 0-6 2.69-6 6s2.69 6 6 6h10c3.31 0 6-2.69 6-6s-2.69-6-6-6Zm0 10H7c-2.21 0-4-1.79-4-4s1.79-4 4-4h10c2.21 0 4 1.79 4 4s-1.79 4-4 4ZM7 9c-1.66 0-3 1.34-3 3s1.34 3 3 3 3-1.34 3-3-1.34-3-3-3Z"/>
</symbol>
<symbol id="toggle_on" viewBox="0 0 24 24">
<path d="M17 6H7c-3.31 0-6 2.69-6 6s2.69 6 6 6h10c3.31 0 6-2.69 6-6s-2.69-6-6-6Zm0 10H7c-2.21 0-4-1.79-4-4s1.79-4 4-4h10c2.21 0 4 1.79 4 4s-1.79 4-4 4Zm0-7c-1.66 0-3 1.34-3 3s1.34 3 3 3 3-1.34 3-3-1.34-3-3-3Z"/>
</symbol>
<symbol id="trending_down" viewBox="0 0 24 24">
<path d="m16 18 2.29-2.29-4.88-4.88-4 4L2 7.41 3.41 6l6 6 4-4 6.3 6.29L22 12v6h-6Z"/>
</symbol>
<symbol id="trending_up" viewBox="0 0 24 24">
<path d="m16 6 2.29 2.29-4.88 4.88-4-4L2 16.59 3.41 18l6-6 4 4 6.3-6.29L22 12V6h-6Z"/>
</symbol>
<symbol id="message_insight" viewBox="0 0 24 24">
<path d="M20 2H4c-1.1 0-2 .9-2 2v18l4-4h14c1.1 0 2-.9 2-2V4c0-1.1-.9-2-2-2Zm0 14H5.17L4 17.17V4h16v12Z"/>
<path d="m12 15 1.57-3.43L17 10l-3.43-1.57L12 5l-1.57 3.43L7 10l3.43 1.57L12 15Z"/>
</symbol>
<symbol id="settings_alt" viewBox="0 0 24 24">
<path d="M3 18c0 .55.45 1 1 1h5v-2H4c-.55 0-1 .45-1 1ZM3 6c0 .55.45 1 1 1h9V5H4c-.55 0-1 .45-1 1Zm10 14v-1h7c.55 0 1-.45 1-1s-.45-1-1-1h-7v-1c0-.55-.45-1-1-1s-1 .45-1 1v4c0 .55.45 1 1 1s1-.45 1-1ZM7 10v1H4c-.55 0-1 .45-1 1s.45 1 1 1h3v1c0 .55.45 1 1 1s1-.45 1-1v-4c0-.55-.45-1-1-1s-1 .45-1 1Zm14 2c0-.55-.45-1-1-1h-9v2h9c.55 0 1-.45 1-1Zm-5-3c.55 0 1-.45 1-1V7h3c.55 0 1-.45 1-1s-.45-1-1-1h-3V4c0-.55-.45-1-1-1s-1 .45-1 1v4c0 .55.45 1 1 1Z"/>
</symbol>
<symbol id="shield_check" viewBox="0 0 24 24">
<path d="M12 1 3 5v6c0 5.55 3.84 10.74 9 12 5.16-1.26 9-6.45 9-12V5l-9-4Zm7 10c0 4.52-2.98 8.69-7 9.93-4.02-1.24-7-5.41-7-9.93V6.3l7-3.11 7 3.11V11Zm-11.59.59L6 13l4 4 8-8-1.41-1.42L10 14.17l-2.59-2.58Z"/>
</symbol>
<symbol id="visibility_off" viewBox="0 0 24 24">
<path d="M12 6.5a9.77 9.77 0 0 1 8.82 5.5 9.647 9.647 0 0 1-2.41 3.12l1.41 1.41C21.21 15.3 22.31 13.76 23 12c-1.73-4.39-6-7.5-11-7.5-1.27 0-2.49.2-3.64.57l1.65 1.65c.65-.13 1.31-.22 1.99-.22Zm-1.07 1.14L13 9.71c.57.25 1.03.71 1.28 1.28l2.07 2.07c.08-.34.14-.7.14-1.07C16.5 9.51 14.48 7.5 12 7.5c-.37 0-.72.05-1.07.14ZM2.01 4.37l2.68 2.68A11.738 11.738 0 0 0 1 12c1.73 4.39 6 7.5 11 7.5 1.52 0 2.98-.29 4.32-.82l3.42 3.42 1.41-1.41L3.42 2.95 2.01 4.37Zm7.5 7.5 2.61 2.61c-.04.01-.08.02-.12.02A2.5 2.5 0 0 1 9.5 12c0-.05.01-.08.01-.13Zm-3.4-3.4 1.75 1.75A4.6 4.6 0 0 0 7.5 12a4.507 4.507 0 0 0 6.27 4.14l.98.98c-.88.24-1.8.38-2.75.38A9.77 9.77 0 0 1 3.18 12c.7-1.43 1.72-2.61 2.93-3.53Z"/>
</symbol>
<symbol id="visibility" viewBox="0 0 24 24">
<path d="M12 6.5a9.77 9.77 0 0 1 8.82 5.5A9.77 9.77 0 0 1 12 17.5 9.77 9.77 0 0 1 3.18 12 9.77 9.77 0 0 1 12 6.5Zm0-2C7 4.5 2.73 7.61 1 12c1.73 4.39 6 7.5 11 7.5s9.27-3.11 11-7.5c-1.73-4.39-6-7.5-11-7.5Zm0 5a2.5 2.5 0 0 1 0 5 2.5 2.5 0 0 1 0-5Zm0-2c-2.48 0-4.5 2.02-4.5 4.5s2.02 4.5 4.5 4.5 4.5-2.02 4.5-4.5-2.02-4.5-4.5-4.5Z"/>
</symbol>
<symbol id="warning" viewBox="0 0 24 24">
<path d="m12 5.494 7.53 13.01H4.47L12 5.494Zm-9.26 12.01c-.77 1.33.19 3 1.73 3h15.06c1.54 0 2.5-1.67 1.73-3l-7.53-13.01c-.77-1.33-2.69-1.33-3.46 0l-7.53 13.01Zm8.26-7v2c0 .55.45 1 1 1s1-.45 1-1v-2c0-.55-.45-1-1-1s-1 .45-1 1Zm0 5h2v2h-2v-2Z"/>
</symbol>
<symbol id="sunset" viewBox="0 0 24 24">
<path d="m19.07 9.37.71-.71a.996.996 0 1 0-1.41-1.41l-.71.71a.996.996 0 1 0 1.41 1.41ZM21 18H3c-.55 0-1 .45-1 1s.45 1 1 1h18c.55 0 1-.45 1-1s-.45-1-1-1ZM12 7c.56 0 1-.45 1-1V5c0-.55-.45-1-1-1s-1 .45-1 1v1c0 .55.45 1 1 1ZM4.96 9.34a.996.996 0 1 0 1.41-1.41l-.71-.71a.996.996 0 1 0-1.41 1.41l.71.71ZM19 16c0-3.87-3.13-7-7-7s-7 3.13-7 7h14Z"/>
</symbol>
<symbol id="collapse_alt" viewBox="0 0 24 24">
<path d="M9 9V3H7v2.59L3.91 2.5 2.5 3.91 5.59 7H3v2h6Zm12 0V7h-2.59l3.09-3.09-1.41-1.41L17 5.59V3h-2v6h6ZM3 15v2h2.59L2.5 20.09l1.41 1.41L7 18.41V21h2v-6H3Zm12 0v6h2v-2.59l3.09 3.09 1.41-1.41L18.41 17H21v-2h-6Z"/>
</symbol>
<symbol id="expand_alt" viewBox="0 0 24 24">
<path d="m15 3 2.3 2.3-2.89 2.87 1.42 1.42L18.7 6.7 21 9V3h-6ZM3 9l2.3-2.3 2.87 2.89 1.42-1.42L6.7 5.3 9 3H3v6Zm6 12-2.3-2.3 2.89-2.87-1.42-1.42L5.3 17.3 3 15v6h6Zm12-6-2.3 2.3-2.87-2.89-1.42 1.42 2.89 2.87L15 21h6v-6Z"/>
</symbol>
<symbol id="plus_circle_outline" viewBox="0 0 24 24">
<path d="M12 7c-0.55 0-1 0.45-1 1v3h-3c-0.55 0-1 0.45-1 1s0.45 1 1 1h3v3c0 0.55 0.45 1 1 1s1-0.45 1-1v-3h3c0.55 0 1-0.45 1-1s-0.45-1-1-1h-3v-3c0-0.55-0.45-1-1-1zM12 2c-5.52 0-10 4.48-10 10s4.48 10 10 10 10-4.48 10-10-4.48-10-10-10zM12 20c-4.41 0-8-3.59-8-8s3.59-8 8-8 8 3.59 8 8-3.59 8-8 8z"></path>
</symbol>
<symbol id="chart_area_outline" viewBox="0 0 24 24">
<path d="M17 7l-5-4-5 7-4-3v13h18v-13h-4zM19 16.95l-7-5.45-4 5.5-3-2.4v-3.6l2.44 1.83 4.96-6.95 3.9 3.12h2.7v7.95z"></path>
</symbol>
<symbol id="caret_circle_down_outline" viewBox="0 0 24 24">
<path d="M12 4c4.41 0 8 3.59 8 8s-3.59 8-8 8-8-3.59-8-8 3.59-8 8-8zM12 2c-5.52 0-10 4.48-10 10s4.48 10 10 10 10-4.48 10-10-4.48-10-10-10zM12 15l-4-4h8z"></path>
</symbol>
<symbol id="bookmark_outline" viewBox="0 0 24 24">
<path d="M17 3h-10c-1.1 0-1.99 0.9-1.99 2l-0.010 16 7-3 7 3v-16c0-1.1-0.9-2-2-2zM17 18l-5-2.18-5 2.18v-13h10v13z"></path>
</symbol>
<symbol id="math_outline" viewBox="0 0 24 24">
<path d="M19 3h-14c-1.1 0-2 0.9-2 2v14c0 1.1 0.9 2 2 2h14c1.1 0 2-0.9 2-2v-14c0-1.1-0.9-2-2-2zM19 19h-14v-14h14v14z"></path>
<path d="M6.25 7.72h5v1.5h-5zM13 15.75h5v1.5h-5zM13 13.25h5v1.5h-5zM8 18h1.5v-2h2v-1.5h-2v-2h-1.5v2h-2v1.5h2zM14.090 10.95l1.41-1.41 1.41 1.41 1.060-1.060-1.41-1.42 1.41-1.41-1.060-1.060-1.41 1.41-1.41-1.41-1.060 1.060 1.41 1.41-1.41 1.42z"></path>
</symbol>
<symbol id="camera_outline" viewBox="0 0 24 24">
<path d="M20 4h-3.17l-1.83-2h-6l-1.83 2h-3.17c-1.1 0-2 0.9-2 2v12c0 1.1 0.9 2 2 2h16c1.1 0 2-0.9 2-2v-12c0-1.1-0.9-2-2-2zM20 18h-16v-12h4.050l1.83-2h4.24l1.83 2h4.050v12zM12 7c-2.76 0-5 2.24-5 5s2.24 5 5 5 5-2.24 5-5-2.24-5-5-5zM12 15c-1.65 0-3-1.35-3-3s1.35-3 3-3 3 1.35 3 3-1.35 3-3 3z"></path>
</symbol>
<symbol id="message_outline" viewBox="0 0 24 24">
<path d="M20 2h-16c-1.1 0-2 0.9-2 2v18l4-4h14c1.1 0 2-0.9 2-2v-12c0-1.1-0.9-2-2-2zM20 16h-14l-2 2v-14h16v12z"></path>
</symbol>
<symbol id="check_box_outline" viewBox="0 0 24 24">
<path d="M19 3h-14c-1.1 0-2 0.9-2 2v14c0 1.1 0.9 2 2 2h14c1.1 0 2-0.9 2-2v-14c0-1.1-0.9-2-2-2zM19 19h-14v-14h14v14zM17.99 9l-1.41-1.42-6.59 6.59-2.58-2.57-1.42 1.41 4 3.99z"></path>
</symbol>
<symbol id="check_circle_outline" viewBox="0 0 24 24">
<path d="M12 2c-5.52 0-10 4.48-10 10s4.48 10 10 10 10-4.48 10-10-4.48-10-10-10zM12 20c-4.41 0-8-3.59-8-8s3.59-8 8-8 8 3.59 8 8-3.59 8-8 8zM15.88 8.29l-5.88 5.88-1.88-1.88c-0.18-0.18-0.43-0.292-0.705-0.292-0.551 0-0.997 0.446-0.997 0.997 0 0.275 0.112 0.525 0.292 0.705l2.59 2.59c0.39 0.39 1.020 0.39 1.41 0l6.59-6.59c0.181-0.18 0.292-0.43 0.292-0.705s-0.112-0.525-0.292-0.705v0c-0.39-0.39-1.030-0.39-1.42 0z"></path>
</symbol>
<symbol id="trash_outline" viewBox="0 0 24 24">
<path d="M6 19c0 1.1 0.9 2 2 2h8c1.1 0 2-0.9 2-2v-12h-12v12zM8 9h8v10h-8v-10zM15.5 4l-1-1h-5l-1 1h-3.5v2h14v-2h-3.5z"></path>
</symbol>
<symbol id="document_outline" viewBox="0 0 24 24">
<path d="M8 16h8v2h-8zM8 12h8v2h-8zM14 2h-8c-1.1 0-2 0.9-2 2v16c0 1.1 0.89 2 1.99 2h12.010c1.1 0 2-0.9 2-2v-12l-6-6zM18 20h-12v-16h7v5h5v11z"></path>
</symbol>
<symbol id="sign_outline" viewBox="0 0 24 24">
<path d="M18.85 10.39l1.060-1.060c0.78-0.78 0.78-2.050 0-2.83l-1.41-1.41c-0.78-0.78-2.050-0.78-2.83 0l-1.060 1.060 4.24 4.24zM14.61 11.81l-7.2 7.19h-1.41v-1.41l7.19-7.19 1.42 1.41zM13.19 7.56l-9.19 9.2v4.24h4.24l9.19-9.19-4.24-4.25zM19 17.5c0 2.19-2.54 3.5-5 3.5-0.55 0-1-0.45-1-1s0.45-1 1-1c1.54 0 3-0.73 3-1.5 0-0.47-0.48-0.87-1.23-1.2l1.48-1.48c1.070 0.63 1.75 1.47 1.75 2.68zM4.58 13.35c-0.97-0.56-1.58-1.29-1.58-2.35 0-1.8 1.89-2.63 3.56-3.36 1.030-0.46 2.44-1.080 2.44-1.64 0-0.41-0.78-1-2-1-1.26 0-1.8 0.61-1.83 0.64-0.35 0.41-0.98 0.46-1.4 0.12-0.222-0.183-0.362-0.459-0.362-0.767 0-0.233 0.080-0.446 0.214-0.615l-0.002 0.002c0.11-0.14 1.14-1.38 3.38-1.38s4 1.32 4 3c0 1.87-1.93 2.72-3.64 3.47-0.94 0.41-2.36 1.030-2.36 1.53 0 0.31 0.43 0.6 1.070 0.86l-1.49 1.49z"></path>
</symbol>
<symbol id="edit_outline" viewBox="0 0 24 24">
<path d="M14.060 9.020l0.92 0.92-9.060 9.060h-0.92v-0.92l9.060-9.060zM17.66 3c-0.25 0-0.51 0.1-0.7 0.29l-1.83 1.83 3.75 3.75 1.83-1.83c0.181-0.18 0.292-0.43 0.292-0.705s-0.112-0.525-0.292-0.705l-2.34-2.34c-0.2-0.2-0.45-0.29-0.71-0.29zM14.060 6.19l-11.060 11.060v3.75h3.75l11.060-11.060-3.75-3.75z"></path>
</symbol>
<symbol id="error_outline" viewBox="0 0 24 24">
<path d="M11 15h2v2h-2v-2zM11 7h2v6h-2v-6zM11.99 2c-5.52 0-9.99 4.48-9.99 10s4.47 10 9.99 10c5.53 0 10.010-4.48 10.010-10s-4.48-10-10.010-10zM12 20c-4.42 0-8-3.58-8-8s3.58-8 8-8 8 3.58 8 8-3.58 8-8 8z"></path>
</symbol>
<symbol id="chevron_circle_down_outline" viewBox="0 0 24 24">
<path d="M15.080 9.59l-3.080 3.080-3.080-3.080-1.42 1.41 4.5 4.5 4.5-4.5-1.42-1.41zM12 2c-5.52 0-10 4.48-10 10s4.48 10 10 10 10-4.48 10-10-4.48-10-10-10zM12 20c-4.42 0-8-3.58-8-8s3.58-8 8-8 8 3.58 8 8-3.58 8-8 8z"></path>
</symbol>
<symbol id="compass_outline" viewBox="0 0 24 24">
<path d="M12 2c-5.52 0-10 4.48-10 10s4.48 10 10 10 10-4.48 10-10-4.48-10-10-10zM12 20c-4.41 0-8-3.59-8-8s3.59-8 8-8 8 3.59 8 8-3.59 8-8 8zM6.5 17.5l7.51-3.49 3.49-7.51-7.51 3.49-3.49 7.51zM12 10.9c0.61 0 1.1 0.49 1.1 1.1s-0.49 1.1-1.1 1.1-1.1-0.49-1.1-1.1 0.49-1.1 1.1-1.1z"></path>
</symbol>
<symbol id="heart_outline" viewBox="0 0 24 24">
<path d="M16.5 3c-1.74 0-3.41 0.81-4.5 2.090-1.090-1.28-2.76-2.090-4.5-2.090-3.080 0-5.5 2.42-5.5 5.5 0 3.78 3.4 6.86 8.55 11.54l1.45 1.31 1.45-1.32c5.15-4.67 8.55-7.75 8.55-11.53 0-3.080-2.42-5.5-5.5-5.5zM12.1 18.55l-0.1 0.1-0.1-0.1c-4.76-4.31-7.9-7.16-7.9-10.050 0-2 1.5-3.5 3.5-3.5 1.54 0 3.040 0.99 3.57 2.36h1.87c0.52-1.37 2.020-2.36 3.56-2.36 2 0 3.5 1.5 3.5 3.5 0 2.89-3.14 5.74-7.9 10.050z"></path>
</symbol>
<symbol id="new_outline" viewBox="0 0 24 24">
<path d="M7.25 12.5l-2.5-3.5h-1.25v6h1.25v-3.5l2.55 3.5h1.2v-6h-1.25zM9.5 15h4v-1.25h-2.5v-1.11h2.5v-1.26h-2.5v-1.12h2.5v-1.26h-4zM19.25 9v4.5h-1.12v-3.51h-1.25v3.52h-1.13v-4.51h-1.25v5c0 0.55 0.45 1 1 1h4c0.55 0 1-0.45 1-1v-5h-1.25z"></path>
</symbol>
<symbol id="pin_outline" viewBox="0 0 24 24">
<path d="M11 15h1.5v-6h-1.5v6zM18.75 9v3.5l-2.5-3.5h-1.25v6h1.25v-3.5l2.55 3.5h1.2v-6h-1.25zM7.5 9h-3.5v6h1.5v-2h2c0.85 0 1.5-0.65 1.5-1.5v-1c0-0.85-0.65-1.5-1.5-1.5zM7.5 11.5h-2v-1h2v1z"></path>
</symbol>
<symbol id="file_download_outline" viewBox="0 0 24 24">
<path d="M18 15v3h-12v-3h-2v3c0 1.1 0.9 2 2 2h12c1.1 0 2-0.9 2-2v-3h-2zM17 11l-1.41-1.41-2.59 2.58v-8.17h-2v8.17l-2.59-2.58-1.41 1.41 5 5 5-5z"></path>
</symbol>
<symbol id="file_upload_outline" viewBox="0 0 24 24">
<path d="M18 15v3h-12v-3h-2v3c0 1.1 0.9 2 2 2h12c1.1 0 2-0.9 2-2v-3h-2zM7 9l1.41 1.41 2.59-2.58v8.17h2v-8.17l2.59 2.58 1.41-1.41-5-5-5 5z"></path>
</symbol>
<symbol id="filter_outline" viewBox="0 0 24 24">
<path d="M7 6h10l-5.010 6.3-4.99-6.3zM4.25 5.61c2.020 2.59 5.75 7.39 5.75 7.39v6c0 0.55 0.45 1 1 1h2c0.55 0 1-0.45 1-1v-6s3.72-4.8 5.74-7.39c0.131-0.167 0.21-0.38 0.21-0.612 0-0.551-0.447-0.998-0.998-0.998-0.001 0-0.001 0-0.002 0h-13.91c-0.83 0-1.3 0.95-0.79 1.61z"></path>
</symbol>
<symbol id="chat_outline" viewBox="0 0 24 24">
<path d="M15 4v7h-9.83l-1.17 1.17v-8.17h11zM16 2h-13c-0.55 0-1 0.45-1 1v14l4-4h10c0.55 0 1-0.45 1-1v-9c0-0.55-0.45-1-1-1zM21 6h-2v9h-13v2c0 0.55 0.45 1 1 1h11l4 4v-15c0-0.55-0.45-1-1-1z"></path>
</symbol>
<symbol id="help_outline" viewBox="0 0 24 24">
<path d="M12 2c-5.52 0-10 4.48-10 10s4.48 10 10 10 10-4.48 10-10-4.48-10-10-10zM12 20c-4.41 0-8-3.59-8-8s3.59-8 8-8 8 3.59 8 8-3.59 8-8 8zM11 16h2v2h-2zM12.61 6.040c-2.060-0.3-3.88 0.97-4.43 2.79-0.18 0.58 0.26 1.17 0.87 1.17h0.2c0.41 0 0.74-0.29 0.88-0.67 0.32-0.89 1.27-1.5 2.3-1.28 0.95 0.2 1.65 1.13 1.57 2.1-0.1 1.34-1.62 1.63-2.45 2.88 0 0.010-0.010 0.010-0.010 0.020-0.010 0.020-0.020 0.030-0.030 0.050-0.090 0.15-0.18 0.32-0.25 0.5-0.010 0.030-0.030 0.050-0.040 0.080-0.010 0.020-0.010 0.040-0.020 0.070-0.12 0.34-0.2 0.75-0.2 1.25h2c0-0.42 0.11-0.77 0.28-1.070 0.020-0.030 0.030-0.060 0.050-0.090 0.080-0.14 0.18-0.27 0.28-0.39 0.010-0.010 0.020-0.030 0.030-0.040 0.1-0.12 0.21-0.23 0.33-0.34 0.96-0.91 2.26-1.65 1.99-3.56-0.24-1.74-1.61-3.21-3.35-3.47z"></path>
</symbol>
<symbol id="home_outline" viewBox="0 0 24 24">
<path d="M12 5.69l5 4.5v7.81h-2v-6h-6v6h-2v-7.81l5-4.5zM12 3l-10 9h3v8h6v-6h2v6h6v-8h3l-10-9z"></path>
</symbol>
<symbol id="check_box_partial_outline" viewBox="0 0 24 24">
<path d="M19 3h-14c-1.1 0-2 0.9-2 2v14c0 1.1 0.9 2 2 2h14c1.1 0 2-0.9 2-2v-14c0-1.1-0.9-2-2-2zM19 19h-14v-14h14v14zM7 11h10v2h-10z"></path>
</symbol>
<symbol id="info_outline" viewBox="0 0 24 24">
<path d="M11 7h2v2h-2zM11 11h2v6h-2zM12 2c-5.52 0-10 4.48-10 10s4.48 10 10 10 10-4.48 10-10-4.48-10-10-10zM12 20c-4.41 0-8-3.59-8-8s3.59-8 8-8 8 3.59 8 8-3.59 8-8 8z"></path>
</symbol>
<symbol id="document_blank_outline" viewBox="0 0 24 24">
<path d="M14 2h-8c-1.1 0-1.99 0.9-1.99 2l-0.010 16c0 1.1 0.89 2 1.99 2h12.010c1.1 0 2-0.9 2-2v-12l-6-6zM6 20v-16h7v5h5v11h-12z"></path>
</symbol>
<symbol id="lightbulb_outline" viewBox="0 0 24 24">
<path d="M9 21c0 0.55 0.45 1 1 1h4c0.55 0 1-0.45 1-1v-1h-6v1zM12 2c-3.86 0-7 3.14-7 7 0 2.38 1.19 4.47 3 5.74v2.26c0 0.55 0.45 1 1 1h6c0.55 0 1-0.45 1-1v-2.26c1.81-1.27 3-3.36 3-5.74 0-3.86-3.14-7-7-7zM14.85 13.1l-0.85 0.6v2.3h-4v-2.3l-0.85-0.6c-1.305-0.913-2.148-2.408-2.15-4.1v0c0-2.76 2.24-5 5-5s5 2.24 5 5c0 1.63-0.8 3.16-2.15 4.1z"></path>
</symbol>
<symbol id="shield_star_outline" viewBox="0 0 24 24">
<path d="M14.5 12.59l0.9 3.88-3.4-2.050-3.4 2.050 0.9-3.87-3-2.59 3.96-0.34 1.54-3.65 1.54 3.64 3.96 0.34-3 2.59zM12 3.19l7 3.11v4.7c0 4.52-2.98 8.69-7 9.93-4.020-1.24-7-5.41-7-9.93v-4.7l7-3.11zM12 1l-9 4v6c0 5.55 3.84 10.74 9 12 5.16-1.26 9-6.45 9-12v-6l-9-4z"></path>
</symbol>
<symbol id="location_outline" viewBox="0 0 24 24">
<path d="M12 2c-3.87 0-7 3.13-7 7 0 5.25 7 13 7 13s7-7.75 7-13c0-3.87-3.13-7-7-7zM7 9c0-2.76 2.24-5 5-5s5 2.24 5 5c0 2.88-2.88 7.19-5 9.88-2.080-2.67-5-7.030-5-9.88z"></path>
<path d="M14.5 9c0 1.381-1.119 2.5-2.5 2.5s-2.5-1.119-2.5-2.5c0-1.381 1.119-2.5 2.5-2.5s2.5 1.119 2.5 2.5z"></path>
</symbol>
<symbol id="lock_outline" viewBox="0 0 24 24">
<path d="M18 8h-1v-2c0-2.76-2.24-5-5-5s-5 2.24-5 5v2h-1c-1.1 0-2 0.9-2 2v10c0 1.1 0.9 2 2 2h12c1.1 0 2-0.9 2-2v-10c0-1.1-0.9-2-2-2zM9 6c0-1.66 1.34-3 3-3s3 1.34 3 3v2h-6v-2zM18 20h-12v-10h12v10zM12 17c1.1 0 2-0.9 2-2s-0.9-2-2-2-2 0.9-2 2 0.9 2 2 2z"></path>
</symbol>
<symbol id="email_outline" viewBox="0 0 24 24">
<path d="M20 4h-16c-1.1 0-1.99 0.9-1.99 2l-0.010 12c0 1.1 0.9 2 2 2h16c1.1 0 2-0.9 2-2v-12c0-1.1-0.9-2-2-2zM20 18h-16v-10l8 5 8-5v10zM12 11l-8-5h16l-8 5z"></path>
</symbol>
<symbol id="notification_outline" viewBox="0 0 24 24">
<path d="M12 22c1.1 0 2-0.9 2-2h-4c0 1.1 0.9 2 2 2zM18 16v-5c0-3.070-1.63-5.64-4.5-6.32v-0.68c0-0.83-0.67-1.5-1.5-1.5s-1.5 0.67-1.5 1.5v0.68c-2.86 0.68-4.5 3.24-4.5 6.32v5l-2 2v1h16v-1l-2-2zM16 17h-8v-6c0-2.48 1.51-4.5 4-4.5s4 2.020 4 4.5v6z"></path>
</symbol>
<symbol id="flag_outline" viewBox="0 0 24 24">
<path d="M14 6l-1-2h-8v17h2v-7h5l1 2h7v-10h-6zM18 14h-4l-1-2h-6v-6h5l1 2h5v6z"></path>
</symbol>
<symbol id="money_circle_outline" viewBox="0 0 24 24">
<path d="M12 2c-5.52 0-10 4.48-10 10s4.48 10 10 10 10-4.48 10-10-4.48-10-10-10zM12 20c-4.41 0-8-3.59-8-8s3.59-8 8-8 8 3.59 8 8-3.59 8-8 8zM12.89 11.1c-1.78-0.59-2.64-0.96-2.64-1.9 0-1.020 1.11-1.39 1.81-1.39 1.31 0 1.79 0.99 1.9 1.34l1.58-0.67c-0.15-0.44-0.82-1.91-2.66-2.23v-1.25h-1.75v1.26c-2.6 0.56-2.62 2.85-2.62 2.96 0 2.27 2.25 2.91 3.35 3.31 1.58 0.56 2.28 1.070 2.28 2.030 0 1.13-1.050 1.61-1.98 1.61-1.82 0-2.34-1.87-2.4-2.090l-1.66 0.67c0.63 2.19 2.28 2.78 3.020 2.96v1.29h1.75v-1.24c0.52-0.090 3.020-0.59 3.020-3.22 0.010-1.39-0.6-2.61-3-3.44z"></path>
</symbol>
<symbol id="cash_outline" viewBox="0 0 24 24">
<path d="M19 14v-8c0-1.1-0.9-2-2-2h-14c-1.1 0-2 0.9-2 2v8c0 1.1 0.9 2 2 2h14c1.1 0 2-0.9 2-2zM17 14h-14v-8h14v8zM10 7c-1.66 0-3 1.34-3 3s1.34 3 3 3 3-1.34 3-3-1.34-3-3-3zM23 7v11c0 1.1-0.9 2-2 2h-17v-2h17v-11h2z"></path>
</symbol>
<symbol id="more_circle_outline" viewBox="0 0 24 24">
<path d="M12 2c-5.52 0-10 4.48-10 10s4.48 10 10 10 10-4.48 10-10-4.48-10-10-10zM12 20c-4.42 0-8-3.58-8-8s3.58-8 8-8 8 3.58 8 8-3.58 8-8 8z"></path>
<path d="M8.5 12c0 0.828-0.672 1.5-1.5 1.5s-1.5-0.672-1.5-1.5c0-0.828 0.672-1.5 1.5-1.5s1.5 0.672 1.5 1.5z"></path>
<path d="M13.5 12c0 0.828-0.672 1.5-1.5 1.5s-1.5-0.672-1.5-1.5c0-0.828 0.672-1.5 1.5-1.5s1.5 0.672 1.5 1.5z"></path>
<path d="M18.5 12c0 0.828-0.672 1.5-1.5 1.5s-1.5-0.672-1.5-1.5c0-0.828 0.672-1.5 1.5-1.5s1.5 0.672 1.5 1.5z"></path>
</symbol>
<symbol id="user_outline" viewBox="0 0 24 24">
<path d="M12 5.9c1.16 0 2.1 0.94 2.1 2.1s-0.94 2.1-2.1 2.1v0c-1.16 0-2.1-0.94-2.1-2.1s0.94-2.1 2.1-2.1v0zM12 14.9c2.97 0 6.1 1.46 6.1 2.1v1.1h-12.2v-1.1c0-0.64 3.13-2.1 6.1-2.1zM12 4c-2.21 0-4 1.79-4 4s1.79 4 4 4 4-1.79 4-4-1.79-4-4-4zM12 13c-2.67 0-8 1.34-8 4v3h16v-3c0-2.66-5.33-4-8-4z"></path>
</symbol>
<symbol id="chart_pie_outline" viewBox="0 0 24 24">
<path d="M12 2c-5.5 0-10 4.5-10 10s4.5 10 10 10 10-4.5 10-10-4.5-10-10-10zM13 4.070c3.61 0.45 6.48 3.33 6.93 6.93h-6.93v-6.93zM4 12c0-4.060 3.070-7.44 7-7.93v15.87c-3.93-0.5-7-3.88-7-7.94zM13 19.93v-6.93h6.93c-0.473 3.621-3.309 6.457-6.89 6.926l-0.040 0.004z"></path>
</symbol>
<symbol id="pause_circle_filled" viewBox="0 0 24 24">
<path d="M12 2C6.48 2 2 6.48 2 12C2 17.52 6.48 22 12 22C17.52 22 22 17.52 22 12C22 6.48 17.52 2 12 2ZM10 16C9.45 16 9 15.55 9 15V9C9 8.45 9.45 8 10 8C10.55 8 11 8.45 11 9V15C11 15.55 10.55 16 10 16ZM14 16C13.45 16 13 15.55 13 15V9C13 8.45 13.45 8 14 8C14.55 8 15 8.45 15 9V15C15 15.55 14.55 16 14 16Z"/>
</symbol>
<symbol id="pause_circle_outlined" viewBox="0 0 24 24">
<path d="M10 16c.55 0 1-.45 1-1V9c0-.55-.45-1-1-1s-1 .45-1 1v6c0 .55.45 1 1 1Zm2-14C6.48 2 2 6.48 2 12s4.48 10 10 10 10-4.48 10-10S17.52 2 12 2Zm0 18c-4.41 0-8-3.59-8-8s3.59-8 8-8 8 3.59 8 8-3.59 8-8 8Zm2-4c.55 0 1-.45 1-1V9c0-.55-.45-1-1-1s-1 .45-1 1v6c0 .55.45 1 1 1Z"/>
</symbol>
<symbol id="pause_round" viewBox="0 0 24 24">
<path d="M8 19c1.1 0 2-.9 2-2V7c0-1.1-.9-2-2-2s-2 .9-2 2v10c0 1.1.9 2 2 2Zm6-12v10c0 1.1.9 2 2 2s2-.9 2-2V7c0-1.1-.9-2-2-2s-2 .9-2 2Z"/>
</symbol>
<symbol id="play_circle_outline" viewBox="0 0 24 24">
<path d="M10.8 15.9l4.67-3.5c0.27-0.2 0.27-0.6 0-0.8l-4.67-3.5c-0.083-0.062-0.187-0.1-0.3-0.1-0.276 0-0.5 0.224-0.5 0.5v0 7c0 0.41 0.47 0.65 0.8 0.4zM12 2c-5.52 0-10 4.48-10 10s4.48 10 10 10 10-4.48 10-10-4.48-10-10-10zM12 20c-4.41 0-8-3.59-8-8s3.59-8 8-8 8 3.59 8 8-3.59 8-8 8z"></path>
</symbol>
<symbol id="shield_info_outline" viewBox="0 0 24 24">
<path d="M12 3.19l7 3.11v4.7c0 4.52-2.98 8.69-7 9.93-4.020-1.24-7-5.41-7-9.93v-4.7l7-3.11zM12 1l-9 4v6c0 5.55 3.84 10.74 9 12 5.16-1.26 9-6.45 9-12v-6l-9-4zM11 7h2v2h-2v-2zM11 11h2v6h-2v-6z"></path>
</symbol>
<symbol id="minus_circle_outline" viewBox="0 0 24 24">
<path d="M7 11v2h10v-2h-10zM12 2c-5.52 0-10 4.48-10 10s4.48 10 10 10 10-4.48 10-10-4.48-10-10-10zM12 20c-4.41 0-8-3.59-8-8s3.59-8 8-8 8 3.59 8 8-3.59 8-8 8z"></path>
</symbol>
<symbol id="remove_red_eye" viewBox="0 0 24 24">
<path d="M12 6.5c0.010 0 0.021 0 0.032 0 3.842 0 7.166 2.218 8.762 5.443l0.026 0.057c-1.65 3.37-5.020 5.5-8.82 5.5s-7.17-2.13-8.82-5.5c1.621-3.282 4.945-5.5 8.788-5.5 0.011 0 0.023 0 0.034 0h-0.002zM12 4.5c-5 0-9.27 3.11-11 7.5 1.73 4.39 6 7.5 11 7.5s9.27-3.11 11-7.5c-1.73-4.39-6-7.5-11-7.5zM12 9.5c1.381 0 2.5 1.119 2.5 2.5s-1.119 2.5-2.5 2.5v0c-1.381 0-2.5-1.119-2.5-2.5s1.119-2.5 2.5-2.5v0zM12 7.5c-2.48 0-4.5 2.020-4.5 4.5s2.020 4.5 4.5 4.5 4.5-2.020 4.5-4.5-2.020-4.5-4.5-4.5z"></path>
</symbol>
<symbol id="piggy_bank_outline" viewBox="0 0 24 24">
<path d="M15 10c0-0.55 0.45-1 1-1s1 0.45 1 1-0.45 1-1 1-1-0.45-1-1zM8 9h5v-2h-5v2zM22 7.5v6.97l-2.82 0.94-1.68 5.59h-5.5v-2h-2v2h-5.5s-2.5-8.46-2.5-11.5 2.46-5.5 5.5-5.5h5c0.91-1.21 2.36-2 4-2 0.827 0 1.498 0.671 1.498 1.498 0 0.21-0.043 0.41-0.121 0.592l0.004-0.010c-0.14 0.34-0.26 0.73-0.32 1.15l2.27 2.27h2.17zM20 9.5h-1l-3.5-3.5c0-0.65 0.090-1.29 0.26-1.91-0.97 0.25-1.76 0.97-2.090 1.91h-6.17c-1.93 0-3.5 1.57-3.5 3.5 0 1.88 1.22 6.65 2.010 9.5h1.99v-2h6v2h2.010l1.55-5.15 2.44-0.82v-3.53z"></path>
</symbol>
<symbol id="shield_outline" viewBox="0 0 24 24">
<path d="M12 2l-8 3v6.090c0 5.050 3.41 9.76 8 10.91 4.59-1.15 8-5.86 8-10.91v-6.090l-8-3zM18 11.090c0 4-2.55 7.7-6 8.83-3.45-1.13-6-4.82-6-8.83v-4.7l6-2.25 6 2.25v4.7z"></path>
</symbol>
<symbol id="star_outline" viewBox="0 0 24 24">
<path d="M19.65 9.040l-4.84-0.42-1.89-4.45c-0.34-0.81-1.5-0.81-1.84 0l-1.89 4.46-4.83 0.41c-0.88 0.070-1.24 1.17-0.57 1.75l3.67 3.18-1.1 4.72c-0.2 0.86 0.73 1.54 1.49 1.080l4.15-2.5 4.15 2.51c0.76 0.46 1.69-0.22 1.49-1.080l-1.1-4.73 3.67-3.18c0.67-0.58 0.32-1.68-0.56-1.75zM12 15.4l-3.76 2.27 1-4.28-3.32-2.88 4.38-0.38 1.7-4.030 1.71 4.040 4.38 0.38-3.32 2.88 1 4.28-3.77-2.28z"></path>
</symbol>
<symbol id="swap_circle_horiz_outline" viewBox="0 0 24 24">
<path d="M12 2c-5.52 0-10 4.48-10 10s4.48 10 10 10 10-4.48 10-10-4.48-10-10-10zM12 20c-4.41 0-8-3.59-8-8s3.59-8 8-8 8 3.59 8 8-3.59 8-8 8zM15 6.5v2.5h-4v2h4v2.5l3.5-3.5zM9 10.5l-3.5 3.5 3.5 3.5v-2.5h4v-2h-4z"></path>
</symbol>
<symbol id="swap_circle_vert_outline" viewBox="0 0 24 24">
<path d="M12 2c-5.52 0-10 4.48-10 10s4.48 10 10 10 10-4.48 10-10-4.48-10-10-10zM12 20c-4.41 0-8-3.59-8-8s3.59-8 8-8 8 3.59 8 8-3.59 8-8 8zM6.5 9l3.5-3.5 3.5 3.5h-2.5v4h-2v-4zM17.5 15l-3.5 3.5-3.5-3.5h2.5v-4h2v4z"></path>
</symbol>
<symbol id="toggle_off_outline" viewBox="0 0 24 24">
<path d="M17 6h-10c-3.31 0-6 2.69-6 6s2.69 6 6 6h10c3.31 0 6-2.69 6-6s-2.69-6-6-6zM17 16h-10c-2.21 0-4-1.79-4-4s1.79-4 4-4h10c2.21 0 4 1.79 4 4s-1.79 4-4 4zM7 9c-1.66 0-3 1.34-3 3s1.34 3 3 3 3-1.34 3-3-1.34-3-3-3z"></path>
</symbol>
<symbol id="toggle_on_outline" viewBox="0 0 24 24">
<path d="M17 6h-10c-3.31 0-6 2.69-6 6s2.69 6 6 6h10c3.31 0 6-2.69 6-6s-2.69-6-6-6zM17 16h-10c-2.21 0-4-1.79-4-4s1.79-4 4-4h10c2.21 0 4 1.79 4 4s-1.79 4-4 4zM17 9c-1.66 0-3 1.34-3 3s1.34 3 3 3 3-1.34 3-3-1.34-3-3-3z"></path>
</symbol>
<symbol id="message_insight_outline" viewBox="0 0 24 24">
<path d="M20 2h-16c-1.1 0-2 0.9-2 2v18l4-4h14c1.1 0 2-0.9 2-2v-12c0-1.1-0.9-2-2-2zM20 16h-14.83l-1.17 1.17v-13.17h16v12z"></path>
<path d="M12 15l1.57-3.43 3.43-1.57-3.43-1.57-1.57-3.43-1.57 3.43-3.43 1.57 3.43 1.57z"></path>
</symbol>
<symbol id="shield_check_outline" viewBox="0 0 24 24">
<path d="M12 1l-9 4v6c0 5.55 3.84 10.74 9 12 5.16-1.26 9-6.45 9-12v-6l-9-4zM19 11c0 4.52-2.98 8.69-7 9.93-4.020-1.24-7-5.41-7-9.93v-4.7l7-3.11 7 3.11v4.7zM7.41 11.59l-1.41 1.41 4 4 8-8-1.41-1.42-6.59 6.59z"></path>
</symbol>
<symbol id="visibility_off_outline" viewBox="0 0 24 24">
<path d="M12 6c0.010 0 0.021 0 0.032 0 3.842 0 7.166 2.218 8.762 5.443l0.026 0.057c-0.605 1.228-1.415 2.266-2.397 3.109l-0.013 0.011 1.41 1.41c1.39-1.23 2.49-2.77 3.18-4.53-1.73-4.39-6-7.5-11-7.5-1.27 0-2.49 0.2-3.64 0.57l1.65 1.65c0.65-0.13 1.31-0.22 1.99-0.22zM10.93 7.14l2.070 2.070c0.57 0.25 1.030 0.71 1.28 1.28l2.070 2.070c0.080-0.34 0.14-0.7 0.14-1.070 0.010-2.48-2.010-4.49-4.49-4.49-0.37 0-0.72 0.050-1.070 0.14zM2.010 3.87l2.68 2.68c-1.626 1.281-2.891 2.95-3.662 4.871l-0.028 0.079c1.73 4.39 6 7.5 11 7.5 1.52 0 2.98-0.29 4.32-0.82l3.42 3.42 1.41-1.41-17.73-17.74-1.41 1.42zM9.51 11.37l2.61 2.61c-0.040 0.010-0.080 0.020-0.12 0.020-1.381 0-2.5-1.119-2.5-2.5v0c0-0.050 0.010-0.080 0.010-0.13zM6.11 7.97l1.75 1.75c-0.227 0.525-0.359 1.137-0.36 1.78v0c0.004 2.486 2.021 4.499 4.507 4.499 0.637 0 1.243-0.132 1.792-0.37l-0.029 0.011 0.98 0.98c-0.88 0.24-1.8 0.38-2.75 0.38-0.010 0-0.021 0-0.032 0-3.842 0-7.166-2.218-8.762-5.443l-0.026-0.057c0.7-1.43 1.72-2.61 2.93-3.53z"></path>
</symbol>
<symbol id="warning_outline" viewBox="0 0 24 24">
<path d="M12 5.99l7.53 13.010h-15.060l7.53-13.010zM2.74 18c-0.77 1.33 0.19 3 1.73 3h15.060c1.54 0 2.5-1.67 1.73-3l-7.53-13.010c-0.77-1.33-2.69-1.33-3.46 0l-7.53 13.010zM11 11v2c0 0.55 0.45 1 1 1s1-0.45 1-1v-2c0-0.55-0.45-1-1-1s-1 0.45-1 1zM11 16h2v2h-2z"></path>
</symbol>
<symbol id="visibility_outline" viewBox="0 0 24 24">
<path d="M12 6.5c0.010-0 0.021-0 0.032-0 3.842 0 7.166 2.218 8.762 5.443l0.026 0.057c-1.65 3.37-5.020 5.5-8.82 5.5s-7.17-2.13-8.82-5.5c1.621-3.282 4.945-5.5 8.788-5.5 0.011 0 0.023 0 0.034 0h-0.002zM12 4.5c-5 0-9.27 3.11-11 7.5 1.73 4.39 6 7.5 11 7.5s9.27-3.11 11-7.5c-1.73-4.39-6-7.5-11-7.5zM12 9.5c1.381 0 2.5 1.119 2.5 2.5s-1.119 2.5-2.5 2.5v0c-1.381 0-2.5-1.119-2.5-2.5s1.119-2.5 2.5-2.5v0zM12 7.5c-2.48 0-4.5 2.020-4.5 4.5s2.020 4.5 4.5 4.5 4.5-2.020 4.5-4.5-2.020-4.5-4.5-4.5z"></path>
</symbol>
<symbol id="chart_donut" viewBox="0 0 24 24">
<path d="M13.025 5.08a7 7 0 0 1 5.92 5.92h3.03c-.47-4.72-4.23-8.48-8.95-8.95v3.03Zm5.92 7.92a7 7 0 0 1-5.92 5.92v3.03c4.72-.47 8.48-4.23 8.95-8.95h-3.03Zm-7.92 5.92c-3.39-.49-6-3.4-6-6.92s2.61-6.43 6-6.92V2.05c-5.05.5-9 4.76-9 9.95 0 5.19 3.95 9.45 9 9.95v-3.03Z"/>
</symbol>
<symbol id="chat" viewBox="0 0 24 24">
<path d="M15 4v7H5.17L4 12.17V4h11Zm1-2H3c-.55 0-1 .45-1 1v14l4-4h10c.55 0 1-.45 1-1V3c0-.55-.45-1-1-1Zm5 4h-2v9H6v2c0 .55.45 1 1 1h11l4 4V7c0-.55-.45-1-1-1Z"/>
</symbol>
<symbol id="settings" viewBox="0 0 24 24">
<path d="M19.14 12.94c.04-.3.06-.61.06-.94 0-.32-.02-.64-.07-.94l2.03-1.58a.49.49 0 0 0 .12-.61l-1.92-3.32a.488.488 0 0 0-.59-.22l-2.39.96c-.5-.38-1.03-.7-1.62-.94l-.36-2.54a.484.484 0 0 0-.48-.41h-3.84c-.24 0-.43.17-.47.41l-.36 2.54c-.59.24-1.13.57-1.62.94l-2.39-.96c-.22-.08-.47 0-.59.22L2.74 8.87c-.12.21-.08.47.12.61l2.03 1.58c-.05.3-.09.63-.09.94 0 .31.02.64.07.94l-2.03 1.58a.49.49 0 0 0-.12.61l1.92 3.32c.12.22.37.29.59.22l2.39-.96c.5.38 1.03.7 1.62.94l.36 2.54c.05.24.24.41.48.41h3.84c.24 0 .44-.17.47-.41l.36-2.54c.59-.24 1.13-.56 1.62-.94l2.39.96c.22.08.47 0 .59-.22l1.92-3.32c.12-.22.07-.47-.12-.61l-2.01-1.58ZM12 15.6A3.61 3.61 0 0 1 8.4 12c0-1.98 1.62-3.6 3.6-3.6s3.6 1.62 3.6 3.6-1.62 3.6-3.6 3.6Z"/>
</symbol>
<symbol id="star_rating" viewBox="0 0 24 24">
    <g class="star-paths">
      <path fill-rule="evenodd" fill="var(--qui-star-rating-svg-border-fill, currentColor)" d="m12.001 16.245 4.882 2.953c.013.009.021.011.024.011h.002l.002.001a.06.06 0 0 0 .028-.012.056.056 0 0 0 .02-.024l.002-.005c0-.003 0-.01-.003-.025l-1.294-5.553 4.316-3.742a.098.098 0 0 0 .017-.018l.002-.005a.065.065 0 0 0-.003-.033.062.062 0 0 0-.016-.027l-.003-.002-.02-.004h-.006l-5.681-.482-2.224-5.252c-.005-.012-.01-.017-.01-.017l-.002-.001A.069.069 0 0 0 12 4a.069.069 0 0 0-.034.008l-.002.001s-.005.005-.01.017l-.001.004L9.73 9.267l-5.686.483c-.014.001-.021.004-.021.004l-.003.001a.062.062 0 0 0-.016.028.064.064 0 0 0-.003.033s0 .003.002.005c0 0 .005.008.017.018l4.316 3.741-1.294 5.553a.083.083 0 0 0-.003.025l.001.005a.062.062 0 0 0 .021.024c.014.01.024.012.028.012h.005c.002 0 .01-.003.023-.011l.002-.001 4.882-2.942Zm-5.933 2.662 1.157-4.966-3.86-3.347c-.705-.61-.326-1.767.6-1.841l5.08-.431 1.987-4.683c.358-.852 1.578-.852 1.936 0l1.988 4.693 5.08.432c.925.073 1.304 1.23.6 1.841l-3.86 3.346 1.156 4.966c.21.905-.768 1.621-1.567 1.137L12 17.413l-4.365 2.63c-.8.484-1.777-.231-1.567-1.136Z" class="star-border-full" clip-rule="evenodd"/>
      <path fill="var(--qui-star-rating-svg-fill, currentColor)" fill-rule="evenodd" d="m6.068 18.907 1.157-4.966-3.86-3.347c-.705-.61-.326-1.767.6-1.841l5.08-.431 1.987-4.683c.358-.852 1.578-.852 1.936 0l1.988 4.693 5.08.432c.925.073 1.304 1.23.6 1.841l-3.86 3.346 1.156 4.966c.21.905-.768 1.621-1.567 1.137L12 17.413l-4.365 2.63c-.8.484-1.777-.231-1.567-1.136Z" class="star-filled" clip-rule="evenodd"/>
      <path fill="var(--qui-star-rating-svg-right-fill, currentColor)" d="M16.365 20.044 12 17.414V3c.395 0 .789.213.968.64l1.988 4.682 5.08.431c.925.074 1.304 1.231.6 1.842l-3.86 3.346 1.156 4.966c.21.905-.768 1.621-1.567 1.137Z" class="star-filled-half-right"/>
      <path fill="var(--qui-star-rating-svg-left-fill, currentColor)" d="M7.635 20.054 12 17.422V3c-.394 0-.789.213-.968.64L9.045 8.325l-5.08.432c-.926.073-1.305 1.231-.6 1.842l3.86 3.348-1.157 4.97c-.21.905.768 1.621 1.567 1.137Z" class="star-filled-half-left"/>
      <path fill="var(--qui-star-rating-svg-right-border-fill, currentColor)" d="M12 16.245v1.168l4.365 2.63c.723.438 1.59-.104 1.596-.88 0-.08-.01-.162-.029-.246l-1.156-4.97 3.86-3.352a1.045 1.045 0 0 0-.6-1.838l-5.08-.432-1.987-4.686A1.033 1.033 0 0 0 12 3v1a.07.07 0 0 1 .034.008l.002.001.01.017.001.004 2.223 5.237 5.685.483a.078.078 0 0 1 .022.004l.002.002c.003.002.01.01.016.027a.063.063 0 0 1 .003.033s0 .003-.002.005c0 0-.005.008-.017.018l-4.315 3.741 1.293 5.554a.08.08 0 0 1 .003.024v.006a.06.06 0 0 1-.022.024.057.057 0 0 1-.027.012h-.005a.082.082 0 0 1-.024-.011l-.002-.002L12 16.245Z" class="star-border-half-right"/>
      <path fill="var(--qui-star-rating-svg-left-border-fill, currentColor)" d="M12.001 16.245v1.168l-4.366 2.63c-.722.438-1.59-.104-1.596-.88 0-.08.01-.162.029-.246l1.157-4.97-3.86-3.353a1.045 1.045 0 0 1 .6-1.838l5.08-.431 1.987-4.686c.18-.426.574-.64.968-.639v1a.07.07 0 0 0-.034.008l-.002.001s-.005.005-.01.017l-.001.004L9.73 9.267l-5.686.483c-.014.001-.021.004-.021.004l-.003.001a.062.062 0 0 0-.016.028.064.064 0 0 0-.003.033s0 .003.002.005c0 0 .005.008.017.018l4.316 3.741-1.294 5.553a.083.083 0 0 0-.003.025v.003l.001.002a.062.062 0 0 0 .021.024c.014.01.024.012.028.012h.005c.002 0 .01-.003.023-.011l.002-.001L12 16.245Z" class="star-border-half-left"/>
  </g>
</symbol>
<symbol id="facebook" viewBox="0 0 24 24">
<path d="M13.194 22v-8.924h3.146l.495-3.536h-3.641s-.006-2.07 0-2.587c.01-1.01.854-1.521 1.58-1.514.724.007 2.226.002 2.226.002V2.183S15.7 2.014 14.335 2c-1.147-.011-2.413.299-3.434 1.328-1.04 1.048-1.203 2.607-1.224 4.513-.005.552 0 1.699 0 1.699H6.6v3.536h3.078V22h3.517Z"/>
</symbol>
<symbol id="instagram" viewBox="0 0 24 24">
<path d="M11.91 2C2.72 2 2 2.72 2 11.91v.18c0 9.19.72 9.91 9.91 9.91h.18c9.19 0 9.91-.72 9.91-9.91V12c0-9.274-.726-10-10-10h-.09Zm6.087 3a1 1 0 1 1 .006 2 1 1 0 0 1-.006-2Zm-6.009 2a5 5 0 1 1 .023 10.001A5 5 0 0 1 11.988 7Zm.005 2a3 3 0 1 0 .015 6.001A3 3 0 0 0 11.993 9Z"/>
</symbol>
<symbol id="linkedin" viewBox="0 0 24 24">
<path d="M6.51 22V8.714H2.383V22H6.51ZM4.447 6.814a2.41 2.41 0 0 0 2.407-2.408 2.407 2.407 0 1 0-2.406 2.408ZM22 22v-7.287c0-3.578-.772-6.33-4.953-6.33-2.009 0-3.355 1.102-3.907 2.146h-.056V8.714h-3.96V22h4.126v-6.573c0-1.732.33-3.411 2.479-3.411 2.118 0 2.146 1.982 2.146 3.523V22H22Z"/>
</symbol>
<symbol id="twitter" viewBox="0 0 24 24">
  <path d="M13.6468 10.4686L20.9321 2H19.2057L12.8799 9.3532L7.82741 2H2L9.6403 13.1193L2 22H3.72649L10.4068 14.2348L15.7425 22H21.5699L13.6464 10.4686H13.6468ZM11.2821 13.2173L10.508 12.1101L4.34857 3.29968H7.00037L11.9711 10.4099L12.7452 11.5172L19.2066 20.7594H16.5548L11.2821 13.2177V13.2173Z"></path>
</symbol>
<symbol id="youtube" viewBox="0 0 24 24">
<path d="M20.97 5.845c.91.937 1.03 2.427 1.03 6.072s-.12 5.134-1.03 6.072c-.912.937-1.86 1.01-8.97 1.01s-8.058-.073-8.97-1.01C2.12 17.05 2 15.562 2 11.917s.12-5.135 1.03-6.072c.912-.938 1.86-1.012 8.97-1.012s8.058.074 8.97 1.011Zm-10.657 9.162 5.06-2.932-5.06-2.887v5.819Z"/>
</symbol>
<symbol id="picture_as_pdf_filled" viewBox="0 0 24 24">
<path d="M20 2H8c-1.1 0-2 .9-2 2v12c0 1.1.9 2 2 2h12c1.1 0 2-.9 2-2V4c0-1.1-.9-2-2-2Zm-8.5 7.5c0 .83-.67 1.5-1.5 1.5H9v2H7.5V7H10c.83 0 1.5.67 1.5 1.5v1Zm5 2c0 .83-.67 1.5-1.5 1.5h-2.5V7H15c.83 0 1.5.67 1.5 1.5v3Zm4-3H19v1h1.5V11H19v2h-1.5V7h3v1.5ZM9 9.5h1v-1H9v1ZM4 6H2v14c0 1.1.9 2 2 2h14v-2H4V6Zm10 5.5h1v-3h-1v3Z"/>
</symbol>
<symbol id="picture_as_pdf_outlined" viewBox="0 0 24 24">
<path d="M20 2H8C6.9 2 6 2.9 6 4V16C6 17.1 6.9 18 8 18H20C21.1 18 22 17.1 22 16V4C22 2.9 21.1 2 20 2ZM20 16H8V4H20V16ZM4 6H2V20C2 21.1 2.9 22 4 22H18V20H4V6ZM16 12V9C16 8.45 15.55 8 15 8H13V13H15C15.55 13 16 12.55 16 12ZM14 9H15V12H14V9ZM18 11H19V10H18V9H19V8H17V13H18V11ZM10 11H11C11.55 11 12 10.55 12 10V9C12 8.45 11.55 8 11 8H9V13H10V11ZM10 9H11V10H10V9Z"/>
</symbol>
<symbol id="play_arrow_outlined" viewBox="0 0 24 24">
<path d="M9.5 8.64 14.77 12 9.5 15.36V8.64ZM7.5 5v14l11-7-11-7Z"/>
</symbol>
<symbol id="play_arrow_round" viewBox="0 0 24 24">
<path d="M7.92749 6.82001V17.18C7.92749 17.97 8.79749 18.45 9.46749 18.02L17.6075 12.84C18.2275 12.45 18.2275 11.55 17.6075 11.15L9.46749 5.98001C8.79749 5.55001 7.92749 6.03001 7.92749 6.82001Z"/>
</symbol>
<symbol id="rating_half" viewBox="0 0 24 24">
<path fill="var(--qui-star-svg-outline, currentColor)" d="M12.0008 16.0831L16.8824 19.0007C16.8962 19.009 16.9043 19.0112 16.9063 19.0117L16.9087 19.0121L16.911 19.0122C16.9143 19.012 16.9251 19.01 16.9386 19.0003C16.952 18.9906 16.9578 18.9806 16.9595 18.9766C16.9595 18.9766 16.9605 18.9736 16.9607 18.9713C16.9608 18.9692 16.9613 18.9616 16.9578 18.947L15.6641 13.4613L19.9799 9.76576C19.9914 9.75592 19.9968 9.74775 19.9968 9.74775C19.9979 9.74592 19.9988 9.74305 19.9988 9.74305C19.9999 9.73885 20.0013 9.72682 19.9958 9.71023C19.9903 9.69362 19.9822 9.68532 19.9798 9.68333L19.9773 9.68187C19.9773 9.68187 19.9703 9.67904 19.9561 9.67792L19.9508 9.67751L14.2697 9.20093L12.0453 4.01361C12.0403 4.00182 12.0361 3.99693 12.0361 3.99693L12.034 3.99523C12.0308 3.99322 12.0191 3.9878 11.9998 3.9878C11.9806 3.9878 11.9688 3.99322 11.9656 3.99523L11.9636 3.99691C11.9636 3.99691 11.9593 4.00182 11.9543 4.0136L11.9527 4.01744L9.72934 9.19058L4.04358 9.66754C4.02938 9.66866 4.02232 9.67148 4.02232 9.67148L4.01982 9.67294C4.0174 9.67493 4.00934 9.68322 4.00385 9.69984C3.99838 9.71642 3.99972 9.72845 4.00079 9.73266C4.00079 9.73266 4.0017 9.73552 4.00283 9.73735C4.00283 9.73735 4.00789 9.74522 4.0194 9.75507L8.33552 13.4509L7.04183 18.9366C7.03838 18.9512 7.03879 18.9588 7.03895 18.9609C7.03914 18.9632 7.04016 18.9662 7.04016 18.9662C7.04179 18.9702 7.0476 18.9802 7.06107 18.9899C7.07449 18.9996 7.08529 19.0016 7.08863 19.0018C7.08863 19.0018 7.09107 19.0018 7.09334 19.0013C7.09535 19.0008 7.10318 18.9987 7.11698 18.9905L7.11877 18.9894L12.0008 16.0831ZM6.0678 18.7129L7.22476 13.807L3.36474 10.5018C2.66005 9.89892 3.03869 8.7556 3.96425 8.68284L9.04433 8.25669L11.0322 3.63143C11.3898 2.78952 12.6098 2.78952 12.9675 3.63143L14.9553 8.26709L20.0354 8.69324C20.9609 8.76599 21.3396 9.90932 20.6349 10.5122L16.7749 13.8174L17.9318 18.7233C18.1422 19.6172 17.164 20.324 16.3647 19.8458L11.9998 17.237L7.63495 19.8355C6.8356 20.3136 5.85745 19.6068 6.0678 18.7129Z"/>
<path fill="var(--qui-star-svg-fill, currentColor)" d="M7.63482 19.8458L11.9998 17.2458V3C11.6053 2.99991 11.2108 3.21052 11.032 3.63181L9.04416 8.25991L3.96422 8.68632C3.03869 8.75912 2.66006 9.90314 3.36473 10.5064L7.22464 13.8136L6.06772 18.7225C5.85737 19.6169 6.83549 20.3242 7.63482 19.8458Z"/>
</symbol>
<symbol id="rating" viewBox="0 0 24 24">
<path fill="var(--qui-star-svg-outline, currentColor)" d="M12.0008 16.0831L16.8824 19.0007C16.8962 19.009 16.9043 19.0112 16.9063 19.0117L16.9087 19.0121L16.911 19.0122C16.9143 19.012 16.9251 19.01 16.9386 19.0003C16.952 18.9906 16.9578 18.9806 16.9595 18.9766C16.9595 18.9766 16.9605 18.9736 16.9607 18.9713C16.9608 18.9692 16.9613 18.9616 16.9578 18.947L15.6641 13.4613L19.9799 9.76576C19.9914 9.75592 19.9968 9.74775 19.9968 9.74775C19.9979 9.74592 19.9988 9.74305 19.9988 9.74305C19.9999 9.73885 20.0013 9.72682 19.9958 9.71023C19.9903 9.69362 19.9822 9.68532 19.9798 9.68333L19.9773 9.68187C19.9773 9.68187 19.9703 9.67904 19.9561 9.67792L19.9508 9.67751L14.2697 9.20093L12.0453 4.01361C12.0403 4.00182 12.0361 3.99693 12.0361 3.99693L12.034 3.99523C12.0308 3.99322 12.0191 3.9878 11.9998 3.9878C11.9806 3.9878 11.9688 3.99322 11.9656 3.99523L11.9636 3.99691C11.9636 3.99691 11.9593 4.00182 11.9543 4.0136L11.9527 4.01744L9.72934 9.19058L4.04358 9.66754C4.02938 9.66866 4.02232 9.67148 4.02232 9.67148L4.01982 9.67294C4.0174 9.67493 4.00934 9.68322 4.00385 9.69984C3.99838 9.71642 3.99972 9.72845 4.00079 9.73266C4.00079 9.73266 4.0017 9.73552 4.00283 9.73735C4.00283 9.73735 4.00789 9.74522 4.0194 9.75507L8.33552 13.4509L7.04183 18.9366C7.03838 18.9512 7.03879 18.9588 7.03895 18.9609C7.03914 18.9632 7.04016 18.9662 7.04016 18.9662C7.04179 18.9702 7.0476 18.9802 7.06107 18.9899C7.07449 18.9996 7.08529 19.0016 7.08863 19.0018C7.08863 19.0018 7.09107 19.0018 7.09334 19.0013C7.09535 19.0008 7.10318 18.9987 7.11698 18.9905L7.11877 18.9894L12.0008 16.0831ZM6.0678 18.7129L7.22476 13.807L3.36474 10.5018C2.66005 9.89892 3.03869 8.7556 3.96425 8.68284L9.04433 8.25669L11.0322 3.63143C11.3898 2.78952 12.6098 2.78952 12.9675 3.63143L14.9553 8.26709L20.0354 8.69324C20.9609 8.76599 21.3396 9.90932 20.6349 10.5122L16.7749 13.8174L17.9318 18.7233C18.1422 19.6172 17.164 20.324 16.3647 19.8458L11.9998 17.237L7.63495 19.8355C6.8356 20.3136 5.85745 19.6068 6.0678 18.7129Z"/>
<path fill="var(--qui-star-svg-fill, currentColor)" d="M6.19982 18.8237L7.33106 13.9676L3.55682 10.6959C2.86779 10.0991 3.23802 8.96742 4.14301 8.8954L9.1102 8.47357L11.0539 3.89522C11.4035 3.06186 12.5965 3.06186 12.9461 3.89522L14.8898 8.48386L19.857 8.90569C20.762 8.97771 21.1322 10.1094 20.4432 10.7062L16.669 13.9779L17.8002 18.834C18.0059 19.7188 17.0495 20.4184 16.2679 19.9452L12 17.3628L7.73214 19.9349C6.95055 20.4081 5.99414 19.7085 6.19982 18.8237Z"/>
<path fill="var(--qui-star-svg-fill, currentColor)" d="M7.63482 19.8458L11.9998 17.2458V3C11.6053 2.99991 11.2108 3.21052 11.032 3.63181L9.04416 8.25991L3.96422 8.68632C3.03869 8.75912 2.66006 9.90314 3.36473 10.5064L7.22464 13.8136L6.06772 18.7225C5.85737 19.6169 6.83549 20.3242 7.63482 19.8458Z"/>
</symbol>
<symbol id="rating_outline" viewBox="0 0 24 24">
<path fill="var(--qui-star-svg-outline, currentColor)" d="M12.0008 16.0831L16.8824 19.0007C16.8962 19.009 16.9043 19.0112 16.9063 19.0117L16.9087 19.0121L16.911 19.0122C16.9143 19.012 16.9251 19.01 16.9386 19.0003C16.952 18.9906 16.9578 18.9806 16.9595 18.9766C16.9595 18.9766 16.9605 18.9736 16.9607 18.9713C16.9608 18.9692 16.9613 18.9616 16.9578 18.947L15.6641 13.4613L19.9799 9.76576C19.9914 9.75592 19.9968 9.74775 19.9968 9.74775C19.9979 9.74592 19.9988 9.74305 19.9988 9.74305C19.9999 9.73885 20.0013 9.72682 19.9958 9.71023C19.9903 9.69362 19.9822 9.68532 19.9798 9.68333L19.9773 9.68187C19.9773 9.68187 19.9703 9.67904 19.9561 9.67792L19.9508 9.67751L14.2697 9.20093L12.0453 4.01361C12.0403 4.00182 12.0361 3.99693 12.0361 3.99693L12.034 3.99523C12.0308 3.99322 12.0191 3.9878 11.9998 3.9878C11.9806 3.9878 11.9688 3.99322 11.9656 3.99523L11.9636 3.99691C11.9636 3.99691 11.9593 4.00182 11.9543 4.0136L11.9527 4.01744L9.72934 9.19058L4.04358 9.66754C4.02938 9.66866 4.02232 9.67148 4.02232 9.67148L4.01982 9.67294C4.0174 9.67493 4.00934 9.68322 4.00385 9.69984C3.99838 9.71642 3.99972 9.72845 4.00079 9.73266C4.00079 9.73266 4.0017 9.73552 4.00283 9.73735C4.00283 9.73735 4.00789 9.74522 4.0194 9.75507L8.33552 13.4509L7.04183 18.9366C7.03838 18.9512 7.03879 18.9588 7.03895 18.9609C7.03914 18.9632 7.04016 18.9662 7.04016 18.9662C7.04179 18.9702 7.0476 18.9802 7.06107 18.9899C7.07449 18.9996 7.08529 19.0016 7.08863 19.0018C7.08863 19.0018 7.09107 19.0018 7.09334 19.0013C7.09535 19.0008 7.10318 18.9987 7.11698 18.9905L7.11877 18.9894L12.0008 16.0831ZM6.0678 18.7129L7.22476 13.807L3.36474 10.5018C2.66005 9.89892 3.03869 8.7556 3.96425 8.68284L9.04433 8.25669L11.0322 3.63143C11.3898 2.78952 12.6098 2.78952 12.9675 3.63143L14.9553 8.26709L20.0354 8.69324C20.9609 8.76599 21.3396 9.90932 20.6349 10.5122L16.7749 13.8174L17.9318 18.7233C18.1422 19.6172 17.164 20.324 16.3647 19.8458L11.9998 17.237L7.63495 19.8355C6.8356 20.3136 5.85745 19.6068 6.0678 18.7129Z"/>
</symbol>
<symbol id="dash" viewBox="0 0 24 24">
<path d="M5 12a1 1 0 0 1 1-1h12a1 1 0 1 1 0 2H6a1 1 0 0 1-1-1Z"/>
</symbol>
<symbol id="vertical_split" viewBox="0 0 24 24">
<path fill-rule="evenodd" clip-rule="evenodd" d="M10 15H4c-.55 0-1-.45-1-1s.45-1 1-1h6c.55 0 1 .45 1 1s-.45 1-1 1Zm0 4H4c-.55 0-1-.45-1-1s.45-1 1-1h6c.55 0 1 .45 1 1s-.45 1-1 1Zm0-8H4c-.55 0-1-.45-1-1s.45-1 1-1h6c.55 0 1 .45 1 1s-.45 1-1 1ZM4 7c-.55 0-1-.45-1-1s.45-1 1-1h6c.55 0 1 .45 1 1s-.45 1-1 1H4Zm16-2h-6c-.55 0-1 .45-1 1v12c0 .55.45 1 1 1h6c.55 0 1-.45 1-1V6c0-.55-.45-1-1-1Zm-1 2h-4v10h4V7Z"/>
</symbol>
<symbol id="folder" viewBox="0 0 24 24">
<path d="m9.17 6 2 2H20v10H4V6h5.17ZM10 4H4c-1.1 0-1.99.9-1.99 2L2 18c0 1.1.9 2 2 2h16c1.1 0 2-.9 2-2V8c0-1.1-.9-2-2-2h-8l-2-2Z"/>
</symbol>
</defs>
</svg>