<svg width="128" height="33" viewBox="0 0 128 33" fill="none" xmlns="http://www.w3.org/2000/svg">
<path d="M40.0029 3.50194V8.49975H48.8701V32.5006H54.4722V8.49975H63.3394V3.50194H40.0063H40.0029ZM65.7198 3.50194V32.5006H71.3252V3.50194H65.7198ZM86.6625 13.4074L89.6271 20.6287H83.6778L86.6625 13.4074ZM85.4907 3.11467L73.1347 32.5039H78.7735L81.7214 25.3694H91.5468L94.5281 32.5039H100.297L87.9412 3.11133H85.4907V3.11467ZM113.818 13.4074L116.783 20.6287H110.834L113.818 13.4074ZM112.646 3.11467L100.29 32.5039H105.926L108.874 25.3694H118.699L121.681 32.5039H127.45L115.097 3.11133H112.646V3.11467Z" fill="#041459"/>
<path d="M32.0001 0.5H24.001V8.49917H32.0001V0.5Z" fill="#041459"/>
<path d="M15.9949 0.5C11.5779 0.5 7.99902 4.08226 7.99902 8.49917H24.0007V0.5H15.9949Z" fill="#305AF3"/>
<path d="M32.0001 16.5058C32.0001 20.9227 28.4179 24.5017 24.001 24.5017V16.5058V8.5H32.0001V16.5058Z" fill="#00AD97"/>
<path d="M24.0008 24.5009H23.6737H16.005H7.99917V8.49925C7.99917 6.28913 8.8939 4.28934 10.3395 2.84375L2.34366 10.8396C0.894731 12.2885 0 14.2883 0 16.4951V32.5001H16.005C18.2151 32.5001 20.2149 31.6054 21.6605 30.1531L29.6563 22.1573C28.2074 23.6029 26.2076 24.4976 24.0008 24.4976V24.5009Z" fill="#041459"/>
</svg>
